<svg id="Layer_1" data-name="Layer 1" xmlns="http://www.w3.org/2000/svg" xmlns:xlink="http://www.w3.org/1999/xlink" viewBox="0 0 660.2 79.4"><defs><style>.cls-1{fill:#f9f9f9;}.cls-13,.cls-16,.cls-2,.cls-5,.cls-8{stroke:#ededed;stroke-miterlimit:10;}.cls-2{fill:url(#linear-gradient);}.cls-3{fill:#0066b2;}.cls-4{fill:#f9a533;}.cls-5{fill:url(#linear-gradient-2);}.cls-6{fill:#369;}.cls-7{fill:#036;}.cls-8{fill:url(#linear-gradient-3);}.cls-9{fill:#fbb231;}.cls-10,.cls-11,.cls-9{fill-rule:evenodd;}.cls-10{fill:#ec1c2e;}.cls-11,.cls-14{fill:#fff;}.cls-12{fill:none;stroke:#fff;stroke-miterlimit:2.61;stroke-width:0.22px;}.cls-13{fill:url(#linear-gradient-4);}.cls-15{fill:#0078a9;}.cls-16{fill:url(#linear-gradient-5);}.cls-17{fill:#f58220;}.cls-18{fill:url(#radial-gradient);}.cls-19{fill:#001722;}.cls-20{fill:#231f20;}</style><linearGradient id="linear-gradient" x1="63.21" y1="78.89" x2="63.21" y2="0.5" gradientUnits="userSpaceOnUse"><stop offset="0" stop-color="#f1f2f2"/><stop offset="1" stop-color="#fff"/></linearGradient><linearGradient id="linear-gradient-2" x1="597.03" y1="78.89" x2="597.03" xlink:href="#linear-gradient"/><linearGradient id="linear-gradient-3" x1="197.35" y1="78.89" x2="197.35" xlink:href="#linear-gradient"/><linearGradient id="linear-gradient-4" x1="464.16" y1="78.89" x2="464.16" xlink:href="#linear-gradient"/><linearGradient id="linear-gradient-5" x1="331.36" y1="78.89" x2="331.36" xlink:href="#linear-gradient"/><radialGradient id="radial-gradient" cx="344.3" cy="-424.09" r="6.18" gradientTransform="translate(6.4 486.1)" gradientUnits="userSpaceOnUse"><stop offset="0.01" stop-color="#ffeee0"/><stop offset="0.11" stop-color="#fee9d7"/><stop offset="0.28" stop-color="#fddbbf"/><stop offset="0.49" stop-color="#fbc597"/><stop offset="0.74" stop-color="#f8a560"/><stop offset="1" stop-color="#f48120"/></radialGradient></defs><title>24 Payment Method Icons</title><rect class="cls-1" x="0.5" y="0.5" width="125.4" height="78.39" rx="4.2"/><rect class="cls-2" x="0.5" y="0.5" width="125.4" height="78.39" rx="4.2"/><polygon class="cls-3" points="58.2 51.5 52.1 51.5 55.9 27.9 62.1 27.9 58.2 51.5"/><path class="cls-3" d="M64.8,50.2,58.9,66.4l-.7-3.5h0l-2-10.6a2.7,2.7,0,0,0-2.9-2.1H43.6v.4a21.6,21.6,0,0,1,6.4,2.7l5.3,20.5h6.4l9.8-23.6Z" transform="translate(-17.8 -22.3)"/><path class="cls-3" d="M113,73.8h5.6l-4.9-23.6h-4.9a2.9,2.9,0,0,0-2.9,1.8L96.8,73.8h6.4l1.3-3.5h7.8Zm-6.8-8.4,3.2-8.8,1.9,8.8Z" transform="translate(-17.8 -22.3)"/><path class="cls-3" d="M97.3,55.9l.9-5.1a18.3,18.3,0,0,0-5.6-1c-3,0-10.2,1.3-10.2,7.8s8.5,6.2,8.5,9.3-7.6,2.7-10.2.7l-.9,5.2a17,17,0,0,0,7,1.4c4.1,0,10.4-2.2,10.4-8.1s-8.5-6.7-8.5-9.3S94.7,54.4,97.3,55.9Z" transform="translate(-17.8 -22.3)"/><path class="cls-4" d="M58.2,62.9l-2-10.6a2.7,2.7,0,0,0-2.9-2.1H43.6v.4a24.6,24.6,0,0,1,9.1,4.6A17.3,17.3,0,0,1,58.2,62.9Z" transform="translate(-17.8 -22.3)"/><rect class="cls-1" x="534.3" y="0.5" width="125.4" height="78.39" rx="4.2"/><rect class="cls-5" x="534.3" y="0.5" width="125.4" height="78.39" rx="4.2"/><path class="cls-6" d="M639,57.7a8.6,8.6,0,0,0-3.7-.6l-2.5.2-1.1.2a1.1,1.1,0,0,0-.9.9l-.3,1.1c-.1.7.3.6.4.6l1.3-.4a6.5,6.5,0,0,1,1.9-.2,4.7,4.7,0,0,1,1.9.2,1.1,1.1,0,0,1,.7,1,.4.4,0,0,1-.1.3l-.3.2a15.5,15.5,0,0,0-3.1.3,8.9,8.9,0,0,0-2.6.7,4.4,4.4,0,0,0-1.8,1.4,4,4,0,0,0-.6,2.2,2.8,2.8,0,0,0,.8,2,3.4,3.4,0,0,0,2.2.7h1.4l1-.3.8-.5.8-.5h0v.3h0c0,.4.2.8.6.8h2a1.1,1.1,0,0,0,.9-.8l1.5-6.5c0-.2.1-.4.1-.6v-.5A2.4,2.4,0,0,0,639,57.7Zm-3.7,7.9a2,2,0,0,1-.8.4,2.3,2.3,0,0,1-1.1.3,2.1,2.1,0,0,1-1.2-.3.9.9,0,0,1-.4-.8,1.7,1.7,0,0,1,.3-1l.9-.6,1.4-.3,1.5-.2c.2,0,.2,0,.2.3s-.3,1.3-.4,1.8Z" transform="translate(-17.8 -22.3)"/><path class="cls-7" d="M612.8,57.2a1.8,1.8,0,0,0-1.3.8l-3.3,5.7c-.2.2-.3.1-.4,0s-.9-5.6-.9-5.6a1.1,1.1,0,0,0-1.1-.9h-1.9a.6.6,0,0,0-.6.8s1.4,8.1,1.7,10a3.4,3.4,0,0,1,0,1.3l-1.9,3.2c-.3.4-.1.8.3.8h2.2a1.8,1.8,0,0,0,1.3-.8l8.3-14.1s.8-1.2.1-1.2h-2.5" transform="translate(-17.8 -22.3)"/><path class="cls-7" d="M586.5,60.1a4.7,4.7,0,0,1-2.6.7h-.5a.7.7,0,0,1-.7-.8l.7-2.7a1,1,0,0,1,1-.8h.7a3,3,0,0,1,1.8.4,1.3,1.3,0,0,1,.6,1.2,2.2,2.2,0,0,1-1,2m4.5-4.2a2.5,2.5,0,0,0-1.1-1.2,4.8,4.8,0,0,0-1.8-.7l-2.5-.2h-4.3a1.1,1.1,0,0,0-1,.8l-3,12.8a.6.6,0,0,0,.6.8H580a1.1,1.1,0,0,0,1-.8l.8-3.1a1.1,1.1,0,0,1,1-.8h.5c2.6,0,4.6-.5,6-1.6a4.8,4.8,0,0,0,2.1-4.1,3.6,3.6,0,0,0-.4-1.9" transform="translate(-17.8 -22.3)"/><path class="cls-6" d="M624.4,60.1a4,4,0,0,1-2.6.7h-.5c-.5,0-.8-.3-.6-.8l.6-2.7a1.1,1.1,0,0,1,1-.8h.7a4,4,0,0,1,1.8.4,1.5,1.5,0,0,1,.6,1.3,2.1,2.1,0,0,1-1,1.9m4.5-4.1a2.8,2.8,0,0,0-1.1-1.3,4.8,4.8,0,0,0-1.8-.6,9.4,9.4,0,0,0-2.5-.2h-4.3a1,1,0,0,0-1,.8l-3,12.7c-.1.5.2.8.7.8h2a1.2,1.2,0,0,0,1.1-.8l.7-3.1a.9.9,0,0,1,1-.7h.6a10.1,10.1,0,0,0,5.9-1.6,5,5,0,0,0,2.1-4.2,3.4,3.4,0,0,0-.4-1.8" transform="translate(-17.8 -22.3)"/><path class="cls-7" d="M601.1,57.7a8.6,8.6,0,0,0-3.7-.6,11.4,11.4,0,0,0-2.6.2l-1,.2a1.1,1.1,0,0,0-.9.9l-.3,1.1c-.1.7.2.6.4.6l1.3-.4,1.9-.3a4.7,4.7,0,0,1,1.9.3,1,1,0,0,1,.6,1V61h-.3l-3.1.4a8.9,8.9,0,0,0-2.6.7,4.4,4.4,0,0,0-1.8,1.4,3.8,3.8,0,0,0-.6,2.2,2.8,2.8,0,0,0,.8,2,3.2,3.2,0,0,0,2.2.7h1.3l1-.3.9-.5.8-.5h0v.3h0a.6.6,0,0,0,.6.8h2a1.1,1.1,0,0,0,.9-.8l1.5-6.6a1.1,1.1,0,0,1,.1-.5v-.5A2.4,2.4,0,0,0,601.1,57.7Zm-3.7,7.9-.8.4a2.3,2.3,0,0,1-1.1.2,2.2,2.2,0,0,1-1.2-.2c-.3-.1-.4-.4-.4-.8a1.7,1.7,0,0,1,.3-1l.9-.6,1.4-.3,1.5-.2c.1,0,.2,0,.2.3s-.3,1.2-.5,1.7A.9.9,0,0,1,597.4,65.6Z" transform="translate(-17.8 -22.3)"/><path class="cls-6" d="M646.2,54h-1.9a1,1,0,0,0-.9.7h-.1v.4l-2.5,11.7c-.1.3-.1.5-.2.5h.1c-.1.4.1.8.5.8h2a1,1,0,0,0,.9-.7h.1l2.8-12.6h0C646.9,54.3,646.7,54,646.2,54Z" transform="translate(-17.8 -22.3)"/><path class="cls-6" d="M649.1,56.6h-.5c-.2,0-.3,0-.4-.2a.6.6,0,0,1-.2-.5V54.8h-.2v-.3h.2V54h.3v.5h.8v.3h-.8v1c0,.1.1.1.1.2v.2h.7Z" transform="translate(-17.8 -22.3)"/><path class="cls-6" d="M652.4,56.6h-.3V55.2c0-.1,0-.2-.1-.2s0-.1-.1-.2h-.5l-.3.2h0v1.3h-.3V55.2a.3.3,0,0,0-.1-.2c0-.1-.1-.1-.1-.2h-.5l-.3.2v1.5h-.3V54.5h.3v.3l.3-.2h.7a.2.2,0,0,1,.2.2l.4-.2h.4l.5.2c.1.1.1.3.1.6Z" transform="translate(-17.8 -22.3)"/><rect class="cls-1" x="134.6" y="0.5" width="125.4" height="78.39" rx="4.2"/><rect class="cls-1" x="134.6" y="0.5" width="125.4" height="78.39" rx="4.2"/><rect class="cls-1" x="134.6" y="0.5" width="125.4" height="78.39" rx="4.2"/><rect class="cls-8" x="134.6" y="0.5" width="125.4" height="78.39" rx="4.2"/><polygon class="cls-9" points="212.4 62.2 213.6 62.2 214.7 62.1 215.8 61.9 216.9 61.7 218 61.5 219.1 61.2 220.2 60.8 221.2 60.4 222.2 60 223.2 59.5 224.1 58.9 225 58.4 225.9 57.7 226.7 57.1 227.6 56.3 228.3 55.6 229.1 54.8 229.8 54 230.5 53.1 231.1 52.3 231.7 51.3 232.2 50.4 232.7 49.4 233.2 48.4 233.6 47.4 233.9 46.4 234.2 45.3 234.5 44.2 234.7 43.1 234.8 42 234.9 40.8 234.9 39.7 234.9 38.5 234.8 37.4 234.7 36.2 234.5 35.1 234.2 34.1 233.9 33 233.6 31.9 233.2 30.9 232.7 29.9 232.2 29 231.7 28 231.1 27.1 230.5 26.2 229.8 25.4 229.1 24.6 228.3 23.8 227.6 23 226.7 22.3 225.9 21.7 225 21 224.1 20.5 223.2 19.9 222.2 19.4 221.2 19 220.2 18.6 219.1 18.2 218 17.9 216.9 17.6 215.8 17.5 214.7 17.3 213.6 17.2 212.4 17.2 211.2 17.2 210.1 17.3 209 17.5 207.9 17.6 206.8 17.9 205.7 18.2 204.7 18.6 203.7 19 202.7 19.4 201.7 19.9 200.8 20.5 199.8 21 199 21.7 198.1 22.3 197.3 23 196.5 23.8 195.8 24.6 195.1 25.4 194.4 26.2 193.8 27.1 193.2 28 192.7 29 192.2 29.9 191.7 30.9 191.3 31.9 191 33 190.6 34.1 190.4 35.1 190.2 36.2 190.1 37.4 190 38.5 189.9 39.7 190 40.8 190.1 42 190.2 43.1 190.4 44.2 190.6 45.3 191 46.4 191.3 47.4 191.7 48.4 192.2 49.4 192.7 50.4 193.2 51.3 193.8 52.3 194.4 53.1 195.1 54 195.8 54.8 196.5 55.6 197.3 56.3 198.1 57.1 199 57.7 199.8 58.4 200.8 58.9 201.7 59.5 202.7 60 203.7 60.4 204.7 60.8 205.7 61.2 206.8 61.5 207.9 61.7 209 61.9 210.1 62.1 211.2 62.2 212.4 62.2 212.4 62.2 212.4 62.2"/><polygon class="cls-10" points="182.3 62.2 183.5 62.2 184.6 62.1 185.7 61.9 186.8 61.7 187.9 61.5 189 61.2 190 60.8 191.1 60.4 192 60 193 59.5 193.9 58.9 194.9 58.4 195.7 57.7 196.6 57.1 197.4 56.3 198.2 55.6 198.9 54.8 199.6 54 200.3 53.1 200.9 52.3 201.5 51.3 202.1 50.4 202.6 49.4 203 48.4 203.4 47.4 203.7 46.4 204.1 45.3 204.3 44.2 204.5 43.1 204.6 42 204.7 40.8 204.8 39.7 204.7 38.5 204.6 37.4 204.5 36.2 204.3 35.1 204.1 34.1 203.7 33 203.4 31.9 203 30.9 202.6 29.9 202.1 29 201.5 28 200.9 27.1 200.3 26.2 199.6 25.4 198.9 24.6 198.2 23.8 197.4 23 196.6 22.3 195.7 21.7 194.9 21 193.9 20.5 193 19.9 192 19.4 191.1 19 190 18.6 189 18.2 187.9 17.9 186.8 17.6 185.7 17.5 184.6 17.3 183.5 17.2 182.3 17.2 181.1 17.2 180 17.3 178.9 17.5 177.8 17.6 176.7 17.9 175.6 18.2 174.5 18.6 173.5 19 172.5 19.4 171.6 19.9 170.6 20.5 169.7 21 168.8 21.7 168 22.3 167.1 23 166.4 23.8 165.6 24.6 164.9 25.4 164.2 26.2 163.6 27.1 163 28 162.5 29 162 29.9 161.5 30.9 161.1 31.9 160.8 33 160.5 34.1 160.2 35.1 160 36.2 159.9 37.4 159.8 38.5 159.8 39.7 159.8 40.8 159.9 42 160 43.1 160.2 44.2 160.5 45.3 160.8 46.4 161.1 47.4 161.5 48.4 162 49.4 162.5 50.4 163 51.3 163.6 52.3 164.2 53.1 164.9 54 165.6 54.8 166.4 55.6 167.1 56.3 168 57.1 168.8 57.7 169.7 58.4 170.6 58.9 171.6 59.5 172.5 60 173.5 60.4 174.5 60.8 175.6 61.2 176.7 61.5 177.8 61.7 178.9 61.9 180 62.1 181.1 62.2 182.3 62.2 182.3 62.2 182.3 62.2"/><polygon class="cls-9" points="194.7 25.8 206.7 25.8 206.7 24.6 195.8 24.6 194.7 25.8 194.7 25.8 194.7 25.8"/><polygon class="cls-9" points="192.9 28.5 206.7 28.5 206.7 27.3 193.6 27.3 192.9 28.5 192.9 28.5 192.9 28.5"/><polygon class="cls-9" points="191.6 31.3 206.7 31.3 206.7 30 192.1 30 191.6 31.3 191.6 31.3 191.6 31.3"/><polygon class="cls-9" points="190.7 34 206.7 34 206.7 32.7 191.1 32.7 190.7 34 190.7 34 190.7 34"/><polygon class="cls-9" points="191.2 47.1 206.7 47.1 206.7 45.9 190.8 45.9 191.2 47.1 191.2 47.1 191.2 47.1"/><polygon class="cls-9" points="192.3 49.8 206.7 49.8 206.7 48.6 191.8 48.6 192.3 49.8 192.3 49.8 192.3 49.8"/><polygon class="cls-9" points="194 52.5 206.7 52.5 206.7 51.3 193.2 51.3 194 52.5 194 52.5 194 52.5"/><polygon class="cls-9" points="196.2 55.2 206.7 55.2 206.7 54 195.1 54 196.2 55.2 196.2 55.2 196.2 55.2"/><polygon class="cls-9" points="190.1 36.7 206.7 36.7 206.7 35.5 190.4 35.5 190.1 36.7 190.1 36.7 190.1 36.7"/><polygon class="cls-9" points="200.2 44.4 206.5 44.4 206.5 43.2 200.4 43.2 200.2 44.4 200.2 44.4 200.2 44.4"/><polygon class="cls-9" points="200.7 41.7 206.5 41.7 206.5 40.5 200.9 40.5 200.7 41.7 200.7 41.7 200.7 41.7"/><polygon class="cls-9" points="189.7 40.5 191.4 40.5 191.4 41.7 189.8 41.7 189.7 40.5 189.7 40.5 189.7 40.5"/><polygon class="cls-11" points="186.7 39 186.5 39 186.4 39 186.3 38.9 186.2 38.9 186.2 38.9 186.1 38.9 186 38.9 185.8 38.9 185.7 38.8 185.6 38.8 185.5 38.8 185.3 38.8 185.2 38.8 185 38.8 184.8 38.8 184.6 38.9 184.4 38.9 184.3 38.9 184.2 39 184.1 39 183.9 39 183.8 39.1 183.8 39.2 183.7 39.3 183.7 39.3 183.6 39.4 183.6 39.5 183.6 39.6 183.6 39.7 183.7 39.8 183.7 39.9 183.8 40 183.9 40.1 184.1 40.3 184.3 40.4 184.6 40.4 184.8 40.5 185.1 40.6 185.3 40.7 185.6 40.8 185.8 40.9 186 41.1 186.2 41.3 186.3 41.5 186.5 41.8 186.5 42.1 186.6 42.5 186.5 43 186.5 43.4 186.4 43.7 186.3 44 186.1 44.2 185.9 44.4 185.8 44.6 185.5 44.8 185.3 44.9 185.1 45.1 184.8 45.2 184.6 45.2 184.3 45.3 184 45.3 183.8 45.4 183.5 45.4 183.3 45.4 183 45.4 182.7 45.4 182.4 45.4 182.1 45.4 181.9 45.4 181.7 45.3 181.5 45.3 181.4 45.3 181.2 45.3 181.1 45.3 180.9 45.2 180.8 45.2 180.7 45.2 180.5 45.1 180.4 45.1 180.3 45 180.6 43.4 180.7 43.4 180.8 43.4 180.9 43.4 181 43.5 181.1 43.5 181.3 43.5 181.5 43.6 181.6 43.6 181.8 43.6 182 43.6 182.2 43.7 182.4 43.7 182.7 43.7 182.9 43.7 183.1 43.7 183.3 43.7 183.6 43.7 183.7 43.6 183.9 43.5 184 43.4 184 43.3 184.1 43.2 184.1 43.1 184.2 42.9 184.2 42.7 184.1 42.5 184 42.4 183.8 42.3 183.6 42.1 183.3 42 183 41.9 182.7 41.8 182.4 41.7 182.1 41.5 181.9 41.3 181.6 41.1 181.4 40.8 181.3 40.4 181.2 40 181.2 39.5 181.3 39.2 181.3 39 181.4 38.7 181.5 38.5 181.6 38.2 181.7 38 181.9 37.8 182.1 37.7 182.3 37.5 182.6 37.4 182.8 37.3 183.1 37.2 183.5 37.1 183.8 37.1 184.3 37.1 184.7 37.1 185 37.1 185.2 37.1 185.5 37.1 185.7 37.1 185.9 37.1 186.1 37.1 186.2 37.1 186.3 37.1 186.5 37.2 186.6 37.2 186.7 37.2 186.8 37.2 186.8 37.2 186.9 37.2 187 37.3 187 37.3 186.7 39 186.7 39 186.7 39"/><polyline class="cls-12" points="186.7 39 186.7 39 186.5 39 186.4 39 186.3 38.9 186.2 38.9 186.2 38.9 186.1 38.9 186 38.9 185.8 38.9 185.7 38.8 185.6 38.8 185.5 38.8 185.3 38.8 185.2 38.8 185 38.8 184.8 38.8 184.6 38.9 184.6 38.9 184.4 38.9 184.3 38.9 184.2 39 184.1 39 183.9 39 183.8 39.1 183.8 39.2 183.7 39.3 183.7 39.3 183.6 39.4 183.6 39.5 183.6 39.6 183.6 39.7 183.7 39.8 183.7 39.9 183.8 40 183.8 40 183.9 40.1 184.1 40.3 184.3 40.4 184.6 40.4 184.8 40.5 185.1 40.6 185.3 40.7 185.6 40.8 185.8 40.9 186 41.1 186.2 41.3 186.3 41.5 186.5 41.8 186.5 42.1 186.6 42.5 186.5 43 186.5 43 186.5 43.4 186.4 43.7 186.3 44 186.1 44.2 185.9 44.4 185.8 44.6 185.5 44.8 185.3 44.9 185.1 45.1 184.8 45.2 184.6 45.2 184.3 45.3 184 45.3 183.8 45.4 183.5 45.4 183.3 45.4 183.3 45.4 183 45.4 182.7 45.4 182.4 45.4 182.1 45.4 181.9 45.4 181.7 45.3 181.5 45.3 181.4 45.3 181.2 45.3 181.1 45.3 180.9 45.2 180.8 45.2 180.7 45.2 180.5 45.1 180.4 45.1 180.3 45 180.6 43.4 180.6 43.4 180.7 43.4 180.8 43.4 180.9 43.4 181 43.5 181.1 43.5 181.3 43.5 181.5 43.6 181.6 43.6 181.8 43.6 182 43.6 182.2 43.7 182.4 43.7 182.7 43.7 182.9 43.7 183.1 43.7 183.3 43.7 183.3 43.7 183.6 43.7 183.7 43.6 183.9 43.5 184 43.4 184 43.3 184.1 43.2 184.1 43.1 184.2 42.9 184.2 42.9 184.2 42.7 184.1 42.5 184 42.4 183.8 42.3 183.6 42.1 183.3 42 183 41.9 182.7 41.8 182.4 41.7 182.1 41.5 181.9 41.3 181.6 41.1 181.4 40.8 181.3 40.4 181.2 40 181.2 39.5 181.2 39.5 181.3 39.2 181.3 39 181.4 38.7 181.5 38.5 181.6 38.2 181.7 38 181.9 37.8 182.1 37.7 182.3 37.5 182.6 37.4 182.8 37.3 183.1 37.2 183.5 37.1 183.8 37.1 184.3 37.1 184.7 37.1 184.7 37.1 185 37.1 185.2 37.1 185.5 37.1 185.7 37.1 185.9 37.1 186.1 37.1 186.2 37.1 186.3 37.1 186.5 37.2 186.6 37.2 186.7 37.2 186.8 37.2 186.8 37.2 186.9 37.2 187 37.3 187 37.3 186.7 39"/><polygon class="cls-11" points="188.5 35.4 190.6 35.4 190.2 37.2 191.5 37.2 191.2 38.9 189.9 38.9 189.2 43.1 189.2 43.3 189.2 43.4 189.3 43.5 189.4 43.6 189.5 43.6 189.7 43.7 189.8 43.7 190 43.7 190.2 43.7 190.3 43.7 190.5 43.7 190.6 43.7 190.7 43.6 190.8 43.6 190.8 43.6 190.8 43.6 190.6 45 190.5 45 190.5 45.1 190.4 45.1 190.3 45.1 190.3 45.2 190.2 45.2 190.2 45.2 190.1 45.2 190 45.2 189.9 45.3 189.9 45.3 189.8 45.3 189.7 45.3 189.5 45.3 189.4 45.3 189.3 45.3 188.7 45.3 188.4 45.3 188.2 45.3 187.9 45.3 187.7 45.2 187.5 45.1 187.4 45.1 187.3 45 187.2 44.9 187.1 44.8 187 44.6 187 44.5 187 44.4 187 44.2 187 44 187 43.9 187 43.7 188.5 35.4 188.5 35.4 188.5 35.4"/><polyline class="cls-12" points="188.5 35.4 190.6 35.4 190.2 37.2 191.5 37.2 191.2 38.9 189.9 38.9 189.2 43.1 189.2 43.1 189.2 43.3 189.2 43.4 189.3 43.5 189.4 43.6 189.5 43.6 189.7 43.7 189.8 43.7 190 43.7 190 43.7 190.2 43.7 190.3 43.7 190.5 43.7 190.6 43.7 190.7 43.6 190.8 43.6 190.8 43.6 190.8 43.6 190.6 45 190.6 45 190.5 45 190.5 45.1 190.4 45.1 190.3 45.1 190.3 45.2 190.2 45.2 190.2 45.2 190.1 45.2 190 45.2 189.9 45.3 189.9 45.3 189.8 45.3 189.7 45.3 189.5 45.3 189.4 45.3 189.3 45.3 188.7 45.3 188.7 45.3 188.4 45.3 188.2 45.3 187.9 45.3 187.7 45.2 187.5 45.1 187.4 45.1 187.3 45 187.2 44.9 187.1 44.8 187 44.6 187 44.5 187 44.4 187 44.2 187 44 187 43.9 187 43.7 188.5 35.4"/><polyline class="cls-12" points="193.2 41.8 193.2 41.8 193.2 41.9 193.2 42.1 193.2 42.2 193.2 42.4 193.3 42.5 193.3 42.6 193.4 42.8 193.5 42.9 193.6 43 193.7 43.1 193.8 43.3 194 43.4 194.1 43.4 194.3 43.5 194.4 43.6 194.6 43.6 194.6 43.6 194.8 43.6 195 43.6 195.2 43.7 195.3 43.7 195.5 43.7 195.8 43.7 195.9 43.7 196.2 43.7 196.4 43.6 196.6 43.6 196.8 43.5 197 43.5 197.2 43.4 197.4 43.3 197.6 43.2 197.8 43.1 197.5 44.9 197.5 44.9 197.4 45 197.3 45 197.2 45.1 197.1 45.1 196.9 45.2 196.8 45.2 196.7 45.2 196.6 45.3 196.4 45.3 196.3 45.3 196.1 45.3 196 45.3 195.8 45.3 195.6 45.3 195.3 45.3 195.1 45.3 195.1 45.3 194.7 45.3 194.3 45.3 193.9 45.3 193.6 45.2 193.2 45 192.8 44.9 192.5 44.7 192.2 44.5 191.9 44.2 191.6 43.9 191.4 43.6 191.2 43.2 191.1 42.7 191 42.2 191 41.7 191 41 191 41 191 40.8 191.1 40.5 191.2 40.2 191.2 39.9 191.3 39.6 191.5 39.2 191.7 38.9 191.9 38.6 192.1 38.3 192.4 38 192.7 37.7 193.1 37.5 193.6 37.3 194.1 37.2 194.6 37.1 195.2 37.1 195.2 37.1 195.5 37.1 195.8 37.1 196.1 37.1 196.4 37.2 196.8 37.3 197 37.5 197.3 37.7 197.6 37.9 197.8 38.1 198 38.4 198.1 38.8 198.2 39.2 198.3 39.6 198.3 40.2 198.3 40.7 198.1 41.4 198.1 41.8 192.6 41.8 192.9 40.3 196.3 40.3 196.3 40.3 196.3 40.1 196.3 40 196.2 39.8 196.2 39.6 196.2 39.5 196.1 39.4 196 39.3 196 39.2 195.9 39.1 195.8 39 195.7 38.9 195.5 38.9 195.4 38.8 195.3 38.8 195.2 38.8 195 38.7 195 38.7 194.9 38.8 194.7 38.8 194.6 38.8 194.5 38.9 194.4 38.9 194.2 39 194.1 39.1 194 39.2 193.9 39.3 193.8 39.4 193.8 39.5 193.7 39.6 193.6 39.8 193.6 39.9 193.5 40.1 193.5 40.2 193.2 41.8"/><polygon class="cls-11" points="211.3 37.7 211.2 37.6 211.1 37.6 211 37.5 210.9 37.5 210.8 37.4 210.6 37.4 210.5 37.3 210.4 37.3 210.2 37.3 210.1 37.2 209.9 37.2 209.8 37.2 209.6 37.1 209.4 37.1 209.2 37.1 209 37.1 208.9 37.1 208.7 37.1 208.4 37.2 208.2 37.2 208 37.3 207.8 37.4 207.6 37.5 207.4 37.6 207.2 37.8 207 38 206.8 38.2 206.6 38.5 206.4 38.8 206.3 39.2 206.1 39.6 206 40.1 206 40.4 205.9 40.6 205.9 40.9 205.9 41.2 206 41.4 206 41.7 206.1 41.9 206.2 42.1 206.3 42.3 206.4 42.5 206.6 42.7 206.8 42.9 207 43 207.2 43.1 207.5 43.2 207.7 43.3 207.8 43.3 208 43.3 208.1 43.3 208.2 43.4 208.4 43.4 208.6 43.4 208.8 43.4 209 43.4 209.2 43.3 209.4 43.3 209.5 43.2 209.7 43.2 209.9 43.1 210.1 43 210.3 42.9 210.4 42.7 210.1 44.8 210 44.8 210 44.9 209.9 44.9 209.9 45 209.8 45 209.7 45.1 209.5 45.1 209.4 45.2 209.2 45.2 209 45.3 208.8 45.3 208.5 45.3 208.2 45.3 207.9 45.3 207.5 45.3 207.1 45.3 206.7 45.3 206.4 45.2 206 45.1 205.7 44.9 205.4 44.8 205 44.5 204.7 44.3 204.5 44 204.2 43.6 204 43.2 203.8 42.8 203.7 42.3 203.6 41.8 203.6 41.3 203.6 40.7 203.7 40.1 203.7 39.8 203.8 39.5 203.9 39.2 203.9 38.9 204 38.6 204.1 38.4 204.2 38.1 204.3 37.9 204.4 37.6 204.5 37.4 204.7 37.2 204.8 37 204.9 36.8 205.1 36.6 205.3 36.5 205.4 36.3 205.6 36.1 205.8 36 205.9 35.9 206.1 35.8 206.3 35.6 206.5 35.5 206.8 35.5 207 35.4 207.2 35.3 207.4 35.2 207.7 35.2 207.9 35.1 208.2 35.1 208.5 35.1 208.8 35 209 35 209.3 35 209.5 35.1 209.7 35.1 210 35.1 210.2 35.1 210.4 35.2 210.6 35.2 210.8 35.3 210.9 35.3 211.1 35.4 211.2 35.4 211.4 35.5 211.5 35.5 211.6 35.5 211.6 35.6 211.7 35.6 211.3 37.7 211.3 37.7 211.3 37.7"/><polyline class="cls-12" points="211.3 37.7 211.3 37.7 211.2 37.6 211.1 37.6 211 37.5 210.9 37.5 210.8 37.4 210.6 37.4 210.5 37.3 210.4 37.3 210.2 37.3 210.1 37.2 209.9 37.2 209.8 37.2 209.6 37.1 209.4 37.1 209.2 37.1 209 37.1 209 37.1 208.9 37.1 208.7 37.1 208.4 37.2 208.2 37.2 208 37.3 207.8 37.4 207.6 37.5 207.4 37.6 207.2 37.8 207 38 206.8 38.2 206.6 38.5 206.4 38.8 206.3 39.2 206.1 39.6 206 40.1 206 40.1 206 40.4 205.9 40.6 205.9 40.9 205.9 41.2 206 41.4 206 41.7 206.1 41.9 206.2 42.1 206.3 42.3 206.4 42.5 206.6 42.7 206.8 42.9 207 43 207.2 43.1 207.5 43.2 207.7 43.3 207.7 43.3 207.8 43.3 208 43.3 208.1 43.3 208.2 43.4 208.4 43.4 208.6 43.4 208.8 43.4 209 43.4 209.2 43.3 209.4 43.3 209.5 43.2 209.7 43.2 209.9 43.1 210.1 43 210.3 42.9 210.4 42.7 210.1 44.8 210.1 44.8 210 44.8 210 44.9 209.9 44.9 209.9 45 209.8 45 209.7 45.1 209.5 45.1 209.4 45.2 209.2 45.2 209 45.3 208.8 45.3 208.5 45.3 208.2 45.3 207.9 45.3 207.5 45.3 207.1 45.3 207.1 45.3 206.7 45.3 206.4 45.2 206 45.1 205.7 44.9 205.4 44.8 205 44.5 204.7 44.3 204.5 44 204.2 43.6 204 43.2 203.8 42.8 203.7 42.3 203.6 41.8 203.6 41.3 203.6 40.7 203.7 40.1 203.7 40.1 203.7 39.8 203.8 39.5 203.9 39.2 203.9 38.9 204 38.6 204.1 38.4 204.2 38.1 204.3 37.9 204.4 37.6 204.5 37.4 204.7 37.2 204.8 37 204.9 36.8 205.1 36.6 205.3 36.5 205.4 36.3 205.6 36.1 205.8 36 205.9 35.9 206.1 35.8 206.3 35.6 206.5 35.5 206.8 35.5 207 35.4 207.2 35.3 207.4 35.2 207.7 35.2 207.9 35.1 208.2 35.1 208.5 35.1 208.8 35 209 35 209 35 209.3 35 209.5 35.1 209.7 35.1 210 35.1 210.2 35.1 210.4 35.2 210.6 35.2 210.8 35.3 210.9 35.3 211.1 35.4 211.2 35.4 211.4 35.5 211.5 35.5 211.6 35.5 211.6 35.6 211.7 35.6 211.3 37.7"/><polygon class="cls-11" points="230 45.3 227.9 45.3 228 44.5 228 44.4 227.9 44.6 227.8 44.7 227.7 44.8 227.5 44.9 227.4 45 227.2 45.1 227.1 45.2 227 45.3 226.8 45.3 226.7 45.4 226.5 45.4 226.4 45.4 226.2 45.4 226.1 45.5 225.9 45.5 225.8 45.5 225.4 45.4 225 45.3 224.7 45.2 224.4 45 224.1 44.8 223.9 44.6 223.7 44.3 223.5 44 223.3 43.6 223.2 43.3 223.1 42.9 223.1 42.5 223 42.1 223 41.7 223.1 41.3 223.1 41 223.3 40.5 223.4 40.1 223.6 39.7 223.7 39.3 223.9 39 224.2 38.7 224.4 38.4 224.7 38.2 224.9 37.9 225.2 37.8 225.5 37.6 225.8 37.5 226.1 37.3 226.4 37.3 226.7 37.2 227 37.2 227.2 37.2 227.4 37.3 227.6 37.3 227.8 37.3 228 37.4 228.1 37.5 228.3 37.6 228.4 37.6 228.5 37.7 228.7 37.8 228.8 37.9 228.9 38 228.9 38.1 229 38.2 229.1 38.3 229.1 38.4 229.1 38.4 229.6 35.4 231.7 35.4 230 45.3 230 45.3 230 45.3"/><polyline class="cls-12" points="230 45.3 227.9 45.3 228 44.5 228 44.4 228 44.4 227.9 44.6 227.8 44.7 227.7 44.8 227.5 44.9 227.4 45 227.2 45.1 227.1 45.2 227 45.3 226.8 45.3 226.7 45.4 226.5 45.4 226.4 45.4 226.2 45.4 226.1 45.5 225.9 45.5 225.8 45.5 225.8 45.5 225.4 45.4 225 45.3 224.7 45.2 224.4 45 224.1 44.8 223.9 44.6 223.7 44.3 223.5 44 223.3 43.6 223.2 43.3 223.1 42.9 223.1 42.5 223 42.1 223 41.7 223.1 41.3 223.1 41 223.1 41 223.3 40.5 223.4 40.1 223.6 39.7 223.7 39.3 223.9 39 224.2 38.7 224.4 38.4 224.7 38.2 224.9 37.9 225.2 37.8 225.5 37.6 225.8 37.5 226.1 37.3 226.4 37.3 226.7 37.2 227 37.2 227 37.2 227.2 37.2 227.4 37.3 227.6 37.3 227.8 37.3 228 37.4 228.1 37.5 228.3 37.6 228.4 37.6 228.5 37.7 228.7 37.8 228.8 37.9 228.9 38 228.9 38.1 229 38.2 229.1 38.3 229.1 38.4 229.1 38.4 229.6 35.4 231.7 35.4 230 45.3"/><polygon class="cls-9" points="226.5 43.5 226.8 43.5 227 43.5 227.1 43.4 227.3 43.3 227.5 43.2 227.6 43.1 227.8 43 227.9 42.8 228 42.7 228.1 42.5 228.2 42.4 228.3 42.2 228.4 42 228.4 41.8 228.5 41.6 228.5 41.4 228.6 41.2 228.6 40.9 228.6 40.7 228.6 40.5 228.6 40.3 228.5 40.1 228.5 40 228.4 39.8 228.3 39.6 228.2 39.5 228.1 39.4 228 39.3 227.9 39.2 227.8 39.1 227.6 39.1 227.5 39 227.3 39.1 227.1 39.1 226.9 39.2 226.7 39.2 226.6 39.3 226.4 39.5 226.3 39.6 226.2 39.7 226 39.9 225.9 40.1 225.8 40.2 225.8 40.4 225.7 40.6 225.6 40.9 225.6 41.1 225.5 41.3 225.5 41.6 225.5 42 225.5 42.4 225.6 42.7 225.8 43 226 43.3 226.2 43.5 226.5 43.5 226.5 43.5 226.5 43.5"/><polygon class="cls-11" points="179.9 43.7 179.6 45.3 177.7 45.3 177.8 45 177.8 44.8 177.8 44.5 177.9 44.4 177.8 44.6 177.6 44.7 177.5 44.8 177.3 44.9 177.2 45 177 45.1 176.8 45.2 176.6 45.3 176.3 45.3 176.1 45.4 175.9 45.4 175.7 45.5 175.5 45.5 175.2 45.5 175 45.5 174.8 45.4 174.5 45.4 174.3 45.3 174.1 45.2 173.9 45.1 173.7 44.9 173.6 44.8 173.5 44.7 173.4 44.5 173.3 44.4 173.2 44.2 173.1 44 173.1 43.9 173.1 43.7 173 43.5 173 43.3 173 43.2 173 42.9 173.1 42.6 173.2 42.3 173.3 42.1 173.4 41.8 173.5 41.6 173.7 41.4 173.9 41.2 174 41 174.3 40.9 174.5 40.7 174.7 40.6 174.9 40.5 175.2 40.4 175.5 40.3 175.7 40.3 175.7 40.3 175.8 40.3 175.8 40.3 175.9 40.3 176 40.3 176.1 40.3 176.2 40.2 176.4 40.2 176.5 40.2 176.6 40.2 176.8 40.2 176.9 40.2 177 40.2 177.1 40.2 177.2 40.1 177.3 40.1 177.5 40.1 177.7 40.2 177.8 40.2 178 40.2 178.1 40.2 178.2 40.2 178.3 40.2 178.3 40.2 178.3 40.1 178.4 40 178.4 39.8 178.4 39.7 178.4 39.5 178.3 39.4 178.3 39.2 178.1 39.1 178 39 177.8 39 177.6 38.9 177.4 38.9 177.2 38.9 177 38.9 176.8 38.9 176.5 38.9 176.3 38.9 176 38.9 175.8 39 175.6 39 175.3 39 175.1 39 174.9 39.1 174.7 39.1 174.6 39.2 174.4 39.2 174.3 39.3 174.2 39.3 174.8 37.5 174.9 37.4 175.1 37.4 175.3 37.3 175.5 37.3 175.7 37.2 175.9 37.2 176.1 37.2 176.3 37.1 176.5 37.1 176.7 37.1 176.9 37.1 177.2 37.1 177.4 37.1 177.6 37.1 177.9 37.1 178.2 37.1 178.4 37.1 178.6 37.2 178.9 37.2 179.1 37.3 179.3 37.4 179.6 37.5 179.8 37.6 180 37.8 180.2 37.9 180.4 38.1 180.5 38.3 180.6 38.6 180.7 38.8 180.7 39.1 180.7 39.4 180.7 39.7 179.9 43.7 179.9 43.7 179.9 43.7"/><polyline class="cls-12" points="179.9 43.7 179.6 45.3 177.7 45.3 177.7 45.3 177.8 45 177.8 44.8 177.8 44.5 177.9 44.4 177.9 44.4 177.8 44.6 177.6 44.7 177.5 44.8 177.3 44.9 177.2 45 177 45.1 176.8 45.2 176.6 45.3 176.3 45.3 176.1 45.4 175.9 45.4 175.7 45.5 175.5 45.5 175.2 45.5 175 45.5 174.8 45.4 174.8 45.4 174.5 45.4 174.3 45.3 174.1 45.2 173.9 45.1 173.7 44.9 173.6 44.8 173.5 44.7 173.4 44.5 173.3 44.4 173.2 44.2 173.1 44 173.1 43.9 173.1 43.7 173 43.5 173 43.3 173 43.2 173 43.2 173 42.9 173.1 42.6 173.2 42.3 173.3 42.1 173.4 41.8 173.5 41.6 173.7 41.4 173.9 41.2 174 41 174.3 40.9 174.5 40.7 174.7 40.6 174.9 40.5 175.2 40.4 175.5 40.3 175.7 40.3 175.7 40.3 175.7 40.3 175.8 40.3 175.8 40.3 175.9 40.3 176 40.3 176.1 40.3 176.2 40.2 176.4 40.2 176.5 40.2 176.6 40.2 176.8 40.2 176.9 40.2 177 40.2 177.1 40.2 177.2 40.1 177.3 40.1 177.3 40.1 177.5 40.1 177.7 40.2 177.8 40.2 178 40.2 178.1 40.2 178.2 40.2 178.3 40.2 178.3 40.2 178.3 40.2 178.3 40.1 178.4 40 178.4 39.8 178.4 39.7 178.4 39.7 178.4 39.5 178.3 39.4 178.3 39.2 178.1 39.1 178 39 177.8 39 177.6 38.9 177.4 38.9 177.4 38.9 177.2 38.9 177 38.9 176.8 38.9 176.5 38.9 176.3 38.9 176 38.9 175.8 39 175.6 39 175.3 39 175.1 39 174.9 39.1 174.7 39.1 174.6 39.2 174.4 39.2 174.3 39.3 174.2 39.3 174.8 37.5 174.8 37.5 174.9 37.4 175.1 37.4 175.3 37.3 175.5 37.3 175.7 37.2 175.9 37.2 176.1 37.2 176.3 37.1 176.5 37.1 176.7 37.1 176.9 37.1 177.2 37.1 177.4 37.1 177.6 37.1 177.9 37.1 178.2 37.1 178.2 37.1 178.4 37.1 178.6 37.2 178.9 37.2 179.1 37.3 179.3 37.4 179.6 37.5 179.8 37.6 180 37.8 180.2 37.9 180.4 38.1 180.5 38.3 180.6 38.6 180.7 38.8 180.7 39.1 180.7 39.4 180.7 39.7 179.9 43.7"/><polygon class="cls-10" points="178.1 41.7 178.1 41.6 178.1 41.6 178 41.6 177.9 41.6 177.9 41.6 177.8 41.5 177.6 41.5 177.5 41.5 177.4 41.6 177.3 41.6 177.2 41.6 177 41.6 176.9 41.6 176.8 41.6 176.7 41.7 176.6 41.7 176.6 41.7 176.5 41.7 176.4 41.8 176.4 41.8 176.3 41.8 176.2 41.9 176.1 41.9 176 42 175.9 42.1 175.8 42.2 175.7 42.2 175.6 42.3 175.5 42.4 175.5 42.5 175.4 42.7 175.4 42.8 175.4 43 175.4 43.2 175.5 43.4 175.6 43.5 175.7 43.6 175.8 43.6 176 43.7 176.1 43.7 176.3 43.7 176.5 43.6 176.7 43.6 176.9 43.6 177 43.5 177.2 43.4 177.3 43.4 177.4 43.3 177.5 43.2 177.6 43.1 177.7 43 177.7 42.9 177.8 42.9 177.8 42.8 177.9 42.7 177.9 42.6 178 42.4 178 42.1 178.1 41.9 178.1 41.7 178.1 41.7 178.1 41.7"/><polygon class="cls-11" points="164 45.3 161.9 45.3 163.6 35.4 167.2 35.4 167.6 41.3 170 35.4 173.8 35.4 172 45.3 170 45.3 171.3 37.9 171.2 37.9 168.1 45.3 165.8 45.3 165.7 45 165.7 44.2 165.6 43 165.5 41.7 165.5 40.3 165.4 39.1 165.3 38.3 165.3 37.9 165.3 37.9 165.3 37.9 165.2 37.9 165.2 37.9 164 45.3 164 45.3 164 45.3"/><polyline class="cls-12" points="164 45.3 161.9 45.3 163.6 35.4 167.2 35.4 167.6 41.3 170 35.4 173.8 35.4 172 45.3 170 45.3 171.3 37.9 171.2 37.9 168.1 45.3 165.8 45.3 165.8 45.3 165.7 45 165.7 44.2 165.6 43 165.5 41.7 165.5 40.3 165.4 39.1 165.3 38.3 165.3 37.9 165.3 37.9 165.3 37.9 165.3 37.9 165.2 37.9 165.2 37.9 164 45.3"/><polygon class="cls-11" points="217.6 43.7 217.3 45.3 215.4 45.3 215.4 45 215.4 44.8 215.4 44.6 215.4 44.5 215.3 44.6 215.2 44.7 215.1 44.8 214.9 44.9 214.8 45 214.6 45.1 214.4 45.2 214.2 45.3 214 45.3 213.8 45.4 213.6 45.4 213.4 45.5 213.1 45.5 212.9 45.5 212.7 45.5 212.5 45.4 212.2 45.4 212 45.3 211.8 45.2 211.6 45.1 211.4 44.9 211.3 44.8 211.2 44.7 211.1 44.5 211 44.4 210.9 44.2 210.8 44 210.8 43.9 210.8 43.7 210.7 43.5 210.7 43.3 210.7 43.2 210.7 42.9 210.8 42.6 210.9 42.3 211 42.1 211.1 41.8 211.2 41.6 211.4 41.4 211.5 41.2 211.7 41 211.9 40.9 212.2 40.7 212.4 40.6 212.6 40.5 212.9 40.4 213.1 40.3 213.4 40.3 213.4 40.3 213.4 40.3 213.5 40.3 213.6 40.3 213.7 40.3 213.8 40.3 213.9 40.2 214 40.2 214.2 40.2 214.3 40.2 214.4 40.2 214.5 40.2 214.7 40.2 214.8 40.2 214.9 40.1 215 40.1 215.1 40.1 215.3 40.2 215.5 40.2 215.7 40.2 215.8 40.2 215.9 40.2 216 40.2 216 40.2 216 40.1 216.1 40 216.1 39.8 216.1 39.7 216.1 39.5 216 39.4 215.9 39.2 215.8 39.1 215.7 39 215.5 39 215.3 38.9 215.2 38.9 214.9 38.9 214.7 38.9 214.5 38.9 214.2 38.9 214 38.9 213.7 38.9 213.5 39 213.3 39 213 39 212.8 39 212.6 39.1 212.4 39.1 212.3 39.2 212.1 39.2 212 39.3 211.9 39.3 212.5 37.5 212.6 37.4 212.8 37.4 213 37.3 213.2 37.3 213.4 37.2 213.6 37.2 213.8 37.2 214 37.1 214.2 37.1 214.4 37.1 214.6 37.1 214.8 37.1 215.1 37.1 215.3 37.1 215.6 37.1 215.8 37.1 216.1 37.1 216.3 37.2 216.5 37.2 216.8 37.3 217 37.4 217.2 37.5 217.5 37.6 217.7 37.8 217.9 37.9 218 38.1 218.2 38.3 218.3 38.6 218.4 38.8 218.4 39.1 218.4 39.4 218.4 39.7 217.6 43.7 217.6 43.7 217.6 43.7"/><polygon class="cls-11" points="217.3 45.4 217.3 45.4 217.6 43.7 217.6 43.7 217.2 45.3 217.3 45.3 217.3 45.4 217.3 45.4 217.3 45.4 217.3 45.4 217.3 45.4 217.3 45.4"/><polygon class="cls-11" points="215.3 45.3 215.4 45.4 217.3 45.4 217.3 45.3 215.4 45.3 215.4 45.3 215.3 45.3 215.3 45.4 215.4 45.4 215.3 45.3 215.3 45.3 215.3 45.3"/><polygon class="cls-11" points="215.5 44.5 215.4 44.4 215.4 44.6 215.4 44.8 215.4 45 215.3 45.3 215.4 45.3 215.4 45 215.5 44.8 215.5 44.6 215.5 44.5 215.4 44.4 215.5 44.5 215.5 44.5 215.5 44.5"/><polygon class="cls-11" points="212.5 45.5 212.5 45.5 212.7 45.5 212.9 45.5 213.1 45.5 213.4 45.5 213.6 45.5 213.8 45.4 214 45.4 214.2 45.3 214.4 45.2 214.6 45.1 214.8 45.1 214.9 44.9 215.1 44.8 215.2 44.7 215.4 44.6 215.5 44.5 215.4 44.4 215.3 44.6 215.2 44.7 215 44.8 214.9 44.9 214.7 45 214.6 45.1 214.4 45.1 214.2 45.2 214 45.3 213.8 45.3 213.6 45.4 213.4 45.4 213.1 45.4 212.9 45.4 212.7 45.4 212.5 45.4 212.5 45.4 212.5 45.5 212.5 45.5 212.5 45.5"/><polygon class="cls-11" points="210.7 43.2 210.7 43.2 210.7 43.3 210.7 43.5 210.7 43.7 210.7 43.9 210.8 44 210.8 44.2 210.9 44.4 211 44.5 211.1 44.7 211.2 44.8 211.4 45 211.6 45.1 211.8 45.2 212 45.3 212.2 45.4 212.5 45.5 212.5 45.4 212.3 45.3 212 45.2 211.8 45.1 211.6 45 211.5 44.9 211.3 44.8 211.2 44.6 211.1 44.5 211 44.3 210.9 44.2 210.9 44 210.8 43.8 210.8 43.7 210.8 43.5 210.8 43.3 210.8 43.2 210.8 43.2 210.7 43.2 210.7 43.2 210.7 43.2"/><polygon class="cls-11" points="213.4 40.3 213.4 40.3 213.1 40.3 212.9 40.4 212.6 40.5 212.4 40.6 212.1 40.7 211.9 40.8 211.7 41 211.5 41.2 211.3 41.4 211.2 41.6 211 41.8 210.9 42.1 210.8 42.3 210.7 42.6 210.7 42.9 210.7 43.2 210.8 43.2 210.8 42.9 210.8 42.6 210.9 42.3 211 42.1 211.1 41.8 211.2 41.6 211.4 41.4 211.6 41.2 211.8 41.1 212 40.9 212.2 40.8 212.4 40.6 212.7 40.5 212.9 40.5 213.1 40.4 213.4 40.3 213.4 40.3 213.4 40.3 213.4 40.3 213.4 40.3"/><polygon class="cls-11" points="215 40.1 215 40.1 214.9 40.1 214.8 40.1 214.7 40.1 214.5 40.1 214.4 40.1 214.3 40.1 214.2 40.2 214 40.2 213.9 40.2 213.8 40.2 213.7 40.2 213.6 40.2 213.5 40.2 213.4 40.2 213.4 40.3 213.4 40.3 213.4 40.3 213.4 40.3 213.5 40.3 213.5 40.3 213.6 40.3 213.7 40.3 213.8 40.3 213.9 40.3 214 40.3 214.2 40.3 214.3 40.2 214.4 40.2 214.5 40.2 214.7 40.2 214.8 40.2 214.9 40.2 215 40.2 215 40.2 215 40.1 215 40.1 215 40.1"/><polygon class="cls-11" points="216 40.2 216 40.1 216 40.1 215.9 40.1 215.8 40.1 215.7 40.1 215.5 40.1 215.3 40.1 215.1 40.1 215 40.1 215 40.2 215.1 40.2 215.3 40.2 215.5 40.2 215.7 40.2 215.8 40.2 215.9 40.2 216 40.2 216 40.2 216.1 40.2 216 40.2 216.1 40.2 216.1 40.2 216 40.2 216 40.2 216 40.2"/><polygon class="cls-11" points="216.1 39.7 216.1 39.7 216 39.8 216 40 216 40.1 216 40.2 216.1 40.2 216.1 40.1 216.1 40 216.1 39.8 216.2 39.7 216.2 39.7 216.1 39.7 216.1 39.7 216.1 39.7"/><polygon class="cls-11" points="215.2 38.9 215.2 39 215.3 39 215.5 39 215.6 39.1 215.8 39.2 215.9 39.3 216 39.4 216 39.5 216.1 39.7 216.2 39.7 216.1 39.5 216.1 39.4 216 39.2 215.8 39.1 215.7 39 215.5 38.9 215.3 38.9 215.2 38.8 215.2 38.9 215.2 38.9 215.2 38.9 215.2 38.9"/><polygon class="cls-11" points="211.9 39.3 212 39.4 212.1 39.3 212.2 39.3 212.3 39.2 212.4 39.2 212.6 39.1 212.8 39.1 213 39.1 213.3 39 213.5 39 213.7 39 214 39 214.2 38.9 214.5 38.9 214.7 38.9 214.9 38.9 215.2 38.9 215.2 38.9 214.9 38.8 214.7 38.8 214.5 38.8 214.2 38.8 214 38.9 213.7 38.9 213.5 38.9 213.3 38.9 213 39 212.8 39 212.6 39 212.4 39.1 212.3 39.1 212.1 39.2 212 39.2 211.9 39.3 212 39.3 211.9 39.3 211.9 39.3 211.9 39.3"/><polygon class="cls-11" points="212.5 37.4 212.4 37.5 211.9 39.3 212 39.3 212.5 37.5 212.5 37.5 212.5 37.4 212.4 37.4 212.4 37.5 212.5 37.4 212.5 37.4 212.5 37.4"/><polygon class="cls-11" points="215.8 37.1 215.8 37.1 215.6 37.1 215.3 37.1 215.1 37.1 214.8 37.1 214.6 37.1 214.4 37.1 214.2 37.1 214 37.1 213.8 37.1 213.5 37.1 213.4 37.2 213.2 37.2 213 37.3 212.8 37.3 212.6 37.4 212.5 37.4 212.5 37.5 212.7 37.5 212.8 37.4 213 37.3 213.2 37.3 213.4 37.3 213.6 37.2 213.8 37.2 214 37.2 214.2 37.2 214.4 37.2 214.6 37.2 214.8 37.2 215.1 37.2 215.3 37.2 215.6 37.2 215.8 37.2 215.8 37.2 215.8 37.1 215.8 37.1 215.8 37.1"/><polygon class="cls-11" points="218.4 39.7 218.4 39.7 218.5 39.4 218.5 39.1 218.4 38.8 218.3 38.5 218.2 38.3 218.1 38.1 217.9 37.9 217.7 37.7 217.5 37.6 217.3 37.5 217 37.4 216.8 37.3 216.5 37.2 216.3 37.1 216.1 37.1 215.8 37.1 215.8 37.2 216.1 37.2 216.3 37.2 216.5 37.3 216.7 37.4 217 37.4 217.2 37.6 217.4 37.7 217.6 37.8 217.8 38 218 38.2 218.1 38.4 218.3 38.6 218.3 38.8 218.4 39.1 218.4 39.4 218.4 39.6 218.4 39.6 218.4 39.7 218.4 39.7 218.4 39.7"/><polygon class="cls-11" points="217.6 43.7 217.6 43.7 218.4 39.7 218.4 39.6 217.6 43.7 217.6 43.7 217.6 43.7 217.6 43.7 217.6 43.7"/><polygon class="cls-9" points="215.8 41.7 215.8 41.6 215.7 41.6 215.7 41.6 215.6 41.6 215.5 41.5 215.4 41.5 215.3 41.5 215.2 41.5 215.1 41.6 214.9 41.6 214.8 41.6 214.7 41.6 214.6 41.6 214.5 41.6 214.4 41.7 214.3 41.7 214.3 41.7 214.2 41.7 214.1 41.7 214 41.8 213.9 41.8 213.9 41.9 213.7 41.9 213.6 42 213.5 42 213.4 42.1 213.4 42.2 213.3 42.3 213.2 42.4 213.2 42.5 213.1 42.7 213.1 42.8 213.1 43 213.1 43.2 213.2 43.4 213.3 43.5 213.4 43.6 213.5 43.6 213.6 43.7 213.8 43.7 214 43.7 214.2 43.6 214.4 43.6 214.6 43.5 214.8 43.5 214.9 43.4 215 43.3 215.2 43.2 215.3 43.2 215.4 43.1 215.4 43 215.5 42.9 215.6 42.8 215.6 42.7 215.6 42.6 215.7 42.5 215.7 42.3 215.7 42.1 215.8 41.9 215.8 41.7 215.8 41.7 215.8 41.7"/><polygon class="cls-11" points="231.4 44.3 231.4 44.1 231.5 43.9 231.6 43.7 231.7 43.6 231.9 43.5 232.1 43.4 232.3 43.3 232.5 43.3 232.7 43.3 232.9 43.4 233.1 43.5 233.2 43.6 233.3 43.7 233.5 43.9 233.5 44.1 233.5 44.3 233.3 44.3 233.3 44.2 233.2 44 233.2 43.9 233.1 43.7 233 43.6 232.8 43.5 232.6 43.5 232.5 43.5 232.3 43.5 232.1 43.5 232 43.6 231.9 43.7 231.8 43.9 231.7 44 231.6 44.2 231.6 44.3 231.4 44.3 231.4 44.3 231.4 44.3"/><polygon class="cls-11" points="232.1 44.3 232.1 43.9 232.5 43.9 232.6 43.9 232.7 43.9 232.7 43.9 232.8 43.9 232.8 44 232.9 44 232.9 44.1 232.9 44.1 232.9 44.2 232.9 44.2 232.8 44.3 232.8 44.3 232.5 44.3 232.5 44.3 232.6 44.3 232.6 44.3 232.7 44.3 232.7 44.2 232.7 44.2 232.7 44.2 232.7 44.1 232.7 44.1 232.7 44.1 232.7 44 232.7 44 232.6 44 232.6 44 232.5 44 232.5 44 232.3 44 232.3 44.3 232.1 44.3 232.1 44.3 232.1 44.3"/><polygon class="cls-11" points="231.4 44.3 231.4 44.4 231.4 44.6 231.5 44.8 231.6 45 231.7 45.1 231.9 45.2 232.1 45.3 232.3 45.4 232.5 45.4 232.7 45.4 232.9 45.3 233.1 45.2 233.2 45.1 233.3 45 233.5 44.8 233.5 44.6 233.5 44.4 233.5 44.3 233.3 44.3 233.3 44.4 233.3 44.5 233.2 44.7 233.2 44.8 233.1 45 233 45.1 232.8 45.2 232.6 45.2 232.5 45.2 232.3 45.2 232.1 45.2 232 45.1 231.9 45 231.8 44.8 231.7 44.7 231.6 44.5 231.6 44.4 231.6 44.3 231.4 44.3 231.4 44.3 231.4 44.3"/><polygon class="cls-11" points="232.1 44.3 232.1 44.8 232.3 44.8 232.3 44.4 232.5 44.4 232.7 44.8 232.8 44.8 232.6 44.4 232.7 44.4 232.7 44.4 232.8 44.4 232.8 44.3 232.8 44.3 232.5 44.3 232.5 44.3 232.3 44.3 232.3 44.3 232.1 44.3 232.1 44.3 232.1 44.3"/><path class="cls-12" d="M249.2,66.6h0V66h.2v-.2h1.2l.2.2h.1v.6h0v.7h-1.8v-.7m.9.5h-.2v-1h.6l.2.4h-.2l-.2-.4h-.2v.4m.2-.5h-.2v.3h.2m0,.9h.6v-.2h.1v-.4h0v-.4h-1.4v.4h0V67h.1v.2h.6" transform="translate(-17.8 -22.3)"/><polygon class="cls-11" points="218.2 45.3 220.3 45.3 220.3 45.3 221.1 41 221.1 40.9 221.2 40.7 221.2 40.5 221.3 40.4 221.3 40.2 221.4 40 221.5 39.9 221.7 39.7 221.8 39.6 221.9 39.5 222.1 39.4 222.3 39.3 222.5 39.2 222.8 39.1 223 39.1 223.3 39.1 223.4 39.1 223.5 39.1 223.5 39.1 223.5 39.1 223.9 37.1 223.7 37.1 223.4 37.2 223.3 37.2 223.1 37.3 222.9 37.3 222.8 37.4 222.6 37.5 222.5 37.6 222.3 37.7 222.2 37.8 222.1 37.9 221.9 38 221.8 38.2 221.7 38.3 221.6 38.4 221.5 38.6 221.7 37.2 219.6 37.2 218.2 45.3 218.2 45.3 218.2 45.3 218.2 45.3"/><polyline class="cls-12" points="218.2 45.3 220.3 45.3 220.3 45.3 221.1 41 221.1 41 221.1 40.9 221.2 40.7 221.2 40.5 221.3 40.4 221.3 40.2 221.4 40 221.5 39.9 221.7 39.7 221.8 39.6 221.9 39.5 222.1 39.4 222.3 39.3 222.5 39.2 222.8 39.1 223 39.1 223.3 39.1 223.3 39.1 223.4 39.1 223.5 39.1 223.5 39.1 223.5 39.1 223.9 37.1 223.9 37.1 223.7 37.1 223.4 37.2 223.3 37.2 223.1 37.3 222.9 37.3 222.8 37.4 222.6 37.5 222.5 37.6 222.3 37.7 222.2 37.8 222.1 37.9 221.9 38 221.8 38.2 221.7 38.3 221.6 38.4 221.5 38.6 221.7 37.2 219.6 37.2 218.2 45.3 218.2 45.3"/><polygon class="cls-11" points="198.1 45.3 200.2 45.3 200.3 45.3 201 41 201 40.9 201 40.7 201.1 40.5 201.1 40.4 201.2 40.2 201.3 40.1 201.4 40 201.5 39.8 201.6 39.7 201.7 39.6 201.9 39.5 202.1 39.4 202.3 39.4 202.5 39.3 202.8 39.3 203.1 39.2 203.1 39.2 203.1 39.2 203.2 39.3 203.2 39.3 203.2 39.3 203.3 39.3 203.3 39.3 203.3 39.3 203.3 39.2 203.3 39.2 203.4 39 203.4 38.9 203.5 38.7 203.5 38.4 203.6 38.2 203.7 38 203.7 37.9 203.8 37.7 203.9 37.6 203.9 37.5 204 37.3 204.1 37.3 204.1 37.2 204.1 37.2 204.1 37.2 204.1 37.2 204 37.2 204 37.1 203.9 37.1 203.9 37.1 203.8 37.1 203.8 37.1 203.5 37.1 203.3 37.2 203.1 37.2 202.9 37.3 202.8 37.3 202.6 37.4 202.5 37.5 202.3 37.6 202.2 37.7 202.1 37.8 202 37.9 201.8 38 201.7 38.1 201.6 38.3 201.5 38.4 201.4 38.6 201.7 37.2 199.5 37.2 198.1 45.3 198.1 45.3 198.1 45.3 198.1 45.3"/><polyline class="cls-12" points="198.1 45.3 200.2 45.3 200.3 45.3 201 41 201 41 201 40.9 201 40.7 201.1 40.5 201.1 40.4 201.2 40.2 201.3 40.1 201.4 40 201.5 39.8 201.6 39.7 201.7 39.6 201.9 39.5 202.1 39.4 202.3 39.4 202.5 39.3 202.8 39.3 203.1 39.2 203.1 39.2 203.1 39.2 203.1 39.2 203.2 39.3 203.2 39.3 203.2 39.3 203.3 39.3 203.3 39.3 203.3 39.3 203.3 39.3 203.3 39.2 203.3 39.2 203.4 39 203.4 38.9 203.5 38.7 203.5 38.4 203.6 38.2 203.7 38 203.7 38 203.7 37.9 203.8 37.7 203.9 37.6 203.9 37.5 204 37.3 204.1 37.3 204.1 37.2 204.1 37.2 204.1 37.2 204.1 37.2 204.1 37.2 204 37.2 204 37.1 203.9 37.1 203.9 37.1 203.8 37.1 203.8 37.1 203.8 37.1 203.5 37.1 203.3 37.2 203.1 37.2 202.9 37.3 202.8 37.3 202.6 37.4 202.5 37.5 202.3 37.6 202.2 37.7 202.1 37.8 202 37.9 201.8 38 201.7 38.1 201.6 38.3 201.5 38.4 201.4 38.6 201.7 37.2 199.5 37.2 198.1 45.3 198.1 45.3"/><polygon class="cls-9" points="231.4 53.3 231.4 53.3 231.5 53.1 231.6 52.9 231.7 52.8 231.9 52.7 232.1 52.6 232.3 52.5 232.5 52.5 232.7 52.5 232.9 52.6 233.1 52.7 233.2 52.8 233.3 52.9 233.5 53.1 233.5 53.3 233.5 53.3 233.3 53.3 233.2 53.2 233.2 53 233.1 52.9 233 52.8 232.8 52.7 232.6 52.7 232.5 52.6 232.3 52.7 232.1 52.7 232 52.8 231.9 52.9 231.8 53 231.7 53.2 231.6 53.3 231.4 53.3 231.4 53.3 231.4 53.3"/><polygon class="cls-9" points="232.1 53.3 232.1 53.1 232.5 53.1 232.6 53.1 232.7 53.1 232.7 53.1 232.8 53.1 232.8 53.2 232.9 53.2 232.9 53.3 232.9 53.3 232.7 53.3 232.7 53.3 232.7 53.3 232.7 53.2 232.7 53.2 232.7 53.2 232.6 53.2 232.6 53.2 232.5 53.2 232.5 53.2 232.3 53.2 232.3 53.3 232.1 53.3 232.1 53.3 232.1 53.3"/><polygon class="cls-9" points="231.4 53.5 231.4 53.3 231.6 53.3 231.6 53.3 231.6 53.5 231.4 53.5 231.4 53.5 231.4 53.5"/><polygon class="cls-9" points="232.1 53.5 232.1 53.3 232.3 53.3 232.3 53.5 232.5 53.5 232.5 53.5 232.6 53.5 232.6 53.4 232.7 53.4 232.7 53.4 232.7 53.4 232.7 53.4 232.7 53.3 232.9 53.3 232.9 53.3 232.9 53.4 232.9 53.4 232.8 53.5 232.8 53.5 232.1 53.5 232.1 53.5 232.1 53.5"/><polygon class="cls-9" points="233.3 53.5 233.3 53.3 233.3 53.3 233.5 53.3 233.5 53.5 233.3 53.5 233.3 53.5 233.3 53.5"/><polygon class="cls-9" points="231.4 53.5 231.4 53.5 231.4 53.7 231.5 53.9 231.6 54.1 231.7 54.3 231.9 54.4 232.1 54.5 232.3 54.6 232.5 54.6 232.7 54.6 232.9 54.5 233.1 54.4 233.2 54.3 233.3 54.1 233.5 53.9 233.5 53.7 233.5 53.5 233.5 53.5 233.3 53.5 233.3 53.5 233.3 53.7 233.2 53.9 233.2 54 233.1 54.1 233 54.3 232.8 54.3 232.6 54.4 232.5 54.4 232.3 54.4 232.1 54.3 232 54.3 231.9 54.1 231.8 54 231.7 53.9 231.6 53.7 231.6 53.5 231.6 53.5 231.4 53.5 231.4 53.5 231.4 53.5"/><polygon class="cls-9" points="232.1 53.5 232.1 53.9 232.3 53.9 232.3 53.6 232.5 53.6 232.7 53.9 232.8 53.9 232.6 53.6 232.7 53.6 232.7 53.5 232.8 53.5 232.8 53.5 232.8 53.5 232.1 53.5 232.1 53.5 232.1 53.5"/><path class="cls-11" d="M216.1,61.9v-.8l-.2-.4-.2-.3-.2-.2-.2-.3h-.3l-.3-.2h-3.2l-.4.2-.4.2-.4.3-.2.3-.3.3-.2.3-.2.3v4l.2.4.3.3.2.3.3.3.3.2.4.2h4.7l.3-1.9-.2.2h-4.3v-.2h-.1v-.2h0v-.2h4.9V61.9Zm-2,.7h-2.7v-.2h.1v-.2h.2v-.2h2.1v.2h.2v.4h0Z" transform="translate(-17.8 -22.3)"/><rect class="cls-1" x="401.4" y="0.5" width="125.4" height="78.39" rx="4.2"/><rect class="cls-13" x="401.4" y="0.5" width="125.4" height="78.39" rx="4.2"/><path class="cls-14" d="M458.2,60.2V58.9l-.6,1.3h-5.2l-.6-1.4v1.4H442l-1.1-2.8H439l-1.3,2.8h-5V52l3.7-8.4h7.1l1,2.4V43.6h8.6l1.9,4,1.9-4h27.2a4.6,4.6,0,0,1,2.4.7v-.7h6.9v.9a5.4,5.4,0,0,1,3-.9h12.2l1,2.4V43.6h7.8l1.4,2.4V43.6h7.4V60.2h-7.6l-1.8-2.9v2.9h-9.5l-1.3-3h-1.9l-1.2,3h-5.8a8.1,8.1,0,0,1-3.7-1.2v1.2H482V56.3c0-.6-.5-.5-.5-.5h-.4v4.4Z" transform="translate(-17.8 -22.3)"/><path class="cls-14" d="M452.5,63.7h15l2.2,2.5,2.2-2.5h11.5a7.6,7.6,0,0,1,2.2.6v-.6h10.2a5,5,0,0,1,2.4.7v-.7h13.3v.6a4.3,4.3,0,0,1,2.2-.6h8.6v.6a5.3,5.3,0,0,1,2.2-.6h6.8V79.3a3.7,3.7,0,0,1-2.8,1.1h-8.9v-.5a4.2,4.2,0,0,1-2.1.5H493.8V76.3c0-.4-.2-.4-.5-.4H493v4.5h-7.4V75.9a5.9,5.9,0,0,1-2.2.4h-2.7v4.1h-9.1l-2.1-2.6-2.2,2.6H452.5Z" transform="translate(-17.8 -22.3)"/><polygon class="cls-15" points="482 43.9 491.4 43.9 491.4 46.5 484.9 46.5 484.9 48.7 491.2 48.7 491.2 50.9 484.9 50.9 484.9 53.2 491.4 53.2 491.4 55.7 482 55.7 482 43.9"/><path class="cls-15" d="M527.5,70.8c3.5.2,3.8,2,3.8,3.8a3.4,3.4,0,0,1-3.7,3.4h-6.1V75.5h4.8c.8,0,1.9,0,1.9-1.1s-.2-.9-1-1h-2c-3.2-.1-3.9-1.7-3.9-3.6a3.2,3.2,0,0,1,3.4-3.4h6v2.5h-4.4c-1,0-2.1-.1-2.1,1s.6.9,1.2.9Z" transform="translate(-17.8 -22.3)"/><path class="cls-15" d="M516.6,70.8c3.5.2,3.8,2,3.8,3.8a3.4,3.4,0,0,1-3.7,3.4h-6V75.5h4.7c.8,0,2,0,2-1.1s-.2-.9-1.1-1h-2c-3.2-.1-3.9-1.7-3.9-3.6a3.2,3.2,0,0,1,3.4-3.4h6.1v2.5h-4.4c-1,0-2.1-.1-2.1,1s.5.9,1.2.9Z" transform="translate(-17.8 -22.3)"/><path class="cls-15" d="M482.4,66.3H472.3L469,69.9l-3.2-3.7H454.4V78h11l3.5-3.9,3.4,3.9h5.5V74h3.9c1.5,0,4.2,0,4.2-4.1A3.2,3.2,0,0,0,482.4,66.3Zm-18.5,9.2h-6.6V73.2h6.3V71h-6.3V68.8h7l2.8,3.2ZM475,76.9,470.8,72l4.2-4.6Zm6.5-5.3h-3.6V68.8h3.6a1.4,1.4,0,0,1,1.6,1.3A1.4,1.4,0,0,1,481.5,71.6Z" transform="translate(-17.8 -22.3)"/><path class="cls-15" d="M496.3,72.7a3.3,3.3,0,0,0,2-3.3c0-2.5-2-3.1-3.4-3.1h-7.5V78h2.9V73.9H494c1,0,1.4,1,1.5,2V78h2.8V75.6C498.2,73.7,497.7,72.8,496.3,72.7Zm-2.4-1.3h-3.6V68.8h3.6a1.4,1.4,0,0,1,1.6,1.3C495.5,70.9,495,71.4,493.9,71.4Z" transform="translate(-17.8 -22.3)"/><rect class="cls-15" x="470.7" y="23.7" width="2.9" height="11.75"/><polygon class="cls-15" points="447.1 23.7 456.5 23.7 456.5 26.2 450 26.2 450 28.4 456.3 28.4 456.3 30.7 450 30.7 450 33 456.5 33 456.5 35.4 447.1 35.4 447.1 23.7"/><path class="cls-15" d="M485,52.4a3.3,3.3,0,0,0,2-3.3c0-2.5-2-3.1-3.4-3.1h-7.5V57.7H479V53.6h3.7c1,0,1.4,1,1.4,2v2.1H487V55.3C486.9,53.4,486.4,52.5,485,52.4Zm-2.5-1.2H479V48.5h3.6a1.3,1.3,0,0,1,1.5,1.3C484.1,50.6,483.7,51.2,482.5,51.2Z" transform="translate(-17.8 -22.3)"/><path class="cls-15" d="M458.3,46l-3.5,7.9L451.2,46h-4.5V57.3l-5-11.3h-3.8l-5.2,11.7h3.1l1.1-2.6h5.8l1.1,2.6h5.8V49l3.8,8.7h2.7l3.9-8.5v8.5h2.9V46ZM438,52.6l1.7-4.1,1.8,4.1Z" transform="translate(-17.8 -22.3)"/><path class="cls-15" d="M521.2,46v8.1L516.3,46H512V57l-4.9-11h-3.8l-3.9,9.1h-1.9c-.7-.1-1.8-.6-1.8-2.7v-.8c0-2.8,1.5-3,3.4-3h1.8V46h-3.8c-1.3,0-4.1,1-4.2,5.8-.1,3.2,1.3,5.9,4.5,5.9h3.8l1.2-2.6h5.7l1.1,2.6h5.7V49.1l5.2,8.6h4V46Zm-17.7,6.6,1.7-4.1,1.8,4.1Z" transform="translate(-17.8 -22.3)"/><rect class="cls-1" x="268.6" y="0.5" width="125.4" height="78.39" rx="4.2"/><rect class="cls-16" x="268.6" y="0.5" width="125.4" height="78.39" rx="4.2"/><path class="cls-17" d="M321,101.2h86.7a4.2,4.2,0,0,0,4.2-4.2V67.6C403.6,72.9,372.2,91.1,321,101.2Z" transform="translate(-17.8 -22.3)"/><path class="cls-18" d="M350.7,55.9a6.1,6.1,0,0,0-6.2,6,6,6,0,0,0,6.2,6.2,6.1,6.1,0,1,0,0-12.2Z" transform="translate(-17.8 -22.3)"/><path class="cls-19" d="M315.2,56.1h-3.4V67.8h3.4a6.4,6.4,0,0,0,4.2-1.3,6,6,0,0,0,2.1-4.5C321.5,58.5,318.9,56.1,315.2,56.1Zm2.7,8.8a4.4,4.4,0,0,1-3.2.9h-.6V58.1h.6a4.4,4.4,0,0,1,3.2.9,3.9,3.9,0,0,1,1.2,3A3.8,3.8,0,0,1,317.9,64.9Z" transform="translate(-17.8 -22.3)"/><rect class="cls-19" x="304.7" y="33.8" width="2.3" height="11.74"/><path class="cls-19" d="M330.4,60.6c-1.3-.5-1.7-.8-1.7-1.5s.7-1.3,1.7-1.3a2.4,2.4,0,0,1,1.8,1l1.2-1.6a5,5,0,0,0-3.4-1.3,3.4,3.4,0,0,0-3.7,3.4c0,1.6.7,2.4,2.9,3.2l1.6.7a1.5,1.5,0,0,1,.7,1.2,1.7,1.7,0,0,1-1.8,1.6,2.6,2.6,0,0,1-2.5-1.5l-1.5,1.4a4.7,4.7,0,0,0,4.1,2.2,3.8,3.8,0,0,0,4-3.8C333.8,62.4,333,61.6,330.4,60.6Z" transform="translate(-17.8 -22.3)"/><path class="cls-19" d="M334.5,62a6.1,6.1,0,0,0,6.2,6.1,6.2,6.2,0,0,0,2.9-.7V64.7a3.7,3.7,0,0,1-2.8,1.3,3.8,3.8,0,0,1-3.9-4,3.9,3.9,0,0,1,3.8-4.1,4.1,4.1,0,0,1,2.9,1.3V56.6a5,5,0,0,0-2.8-.8A6.3,6.3,0,0,0,334.5,62Z" transform="translate(-17.8 -22.3)"/><polygon class="cls-19" points="344.3 41.7 341.2 33.8 338.7 33.8 343.7 45.8 344.9 45.8 350 33.8 347.5 33.8 344.3 41.7"/><polygon class="cls-19" points="351 45.5 357.5 45.5 357.5 43.6 353.3 43.6 353.3 40.4 357.3 40.4 357.3 38.4 353.3 38.4 353.3 35.8 357.5 35.8 357.5 33.8 351 33.8 351 45.5"/><path class="cls-19" d="M384.4,59.6c0-2.2-1.5-3.5-4.2-3.5h-3.4V67.8h2.3V63.1h.3l3.2,4.7h2.8l-3.7-4.9A3.2,3.2,0,0,0,384.4,59.6Zm-4.6,1.9h-.7V57.9h.7c1.5,0,2.2.6,2.2,1.8S381.3,61.5,379.8,61.5Z" transform="translate(-17.8 -22.3)"/><path class="cls-20" d="M386,57c0-.2-.1-.3-.4-.3h-.3v1h.2v-.4l.3.4h.3l-.3-.4C385.9,57.2,386,57.1,386,57Zm-.4.1h-.1v-.3h.1a.2.2,0,0,1,.2.2C385.8,57.1,385.7,57.1,385.6,57.1Z" transform="translate(-17.8 -22.3)"/><path class="cls-20" d="M385.7,56.3a.9.9,0,1,0,.9.9A.9.9,0,0,0,385.7,56.3Zm0,1.6a.8.8,0,0,1-.8-.7.9.9,0,0,1,.8-.8.8.8,0,0,1,.7.8A.7.7,0,0,1,385.7,57.9Z" transform="translate(-17.8 -22.3)"/></svg>