<?xml version="1.0" encoding="utf-8"?>
<!-- Generator: Adobe Illustrator 24.0.3, SVG Export Plug-In . SVG Version: 6.00 Build 0)  -->
<svg version="1.1" id="Layer_1" xmlns="http://www.w3.org/2000/svg" xmlns:xlink="http://www.w3.org/1999/xlink" x="0px" y="0px"
	 viewBox="0 0 342.4 312.5" style="enable-background:new 0 0 342.4 312.5;" xml:space="preserve">
<style type="text/css">
	.st0{fill:#E26A1A;}
</style>
<path class="st0" d="M342.4,1c-2.9,3.2-6,6.3-8.8,9.6C314,34,294.2,57.3,274.9,81c-32.7,40.2-63.1,82.1-91.2,125.7
	c-4.8,7.4-9.9,14.6-16.9,20.1c-13.9,10.9-34.4,10.2-47-2.1c-3.6-3.5-6.2-8-9.2-12.1c-15-20.5-29.9-41.1-44.9-61.7
	c-3.8-5.2-3.8-7.8,0.4-12.6c6.8-8.1,17.7-10.6,28.9-6.7c7.3,2.6,13.2,7,17.7,13.4c9.7,13.9,19.6,27.7,29.3,41.5
	c2.1,3,2.5,3.1,4.8,0.2c11.8-14.8,23.5-29.7,35.5-44.4c16.4-20,34.3-38.7,53-56.5c23-21.8,47.3-42.2,72.7-61.2
	c10.7-8,21.6-15.6,32.3-23.4c0.5-0.4,0.9-0.9,1.3-1.3C341.8,0.3,342.1,0.6,342.4,1z"/>
<path class="st0" d="M243.4,64.6c-5,5.1-9.8,10.1-14.7,15.2c-3.7-3-7.1-6.1-10.8-8.9c-18.4-13.9-39-22.2-62-24.3
	c-33.9-3.1-64.3,6.2-90.4,27.9C42,94.2,27.6,119.4,23,149.8c-5.1,33.8,2.6,64.7,23,92c19.9,26.5,46.5,42.8,79.4,47.6
	c39.3,5.8,73.8-5.2,102.8-32.3c21.5-20.1,33.8-45.1,37.4-74.2c2.5-20.3-0.1-40.2-7.7-59.2c-0.6-1.6-0.6-2.6,0.5-4
	c4.1-5.1,8-10.3,11.9-15.4c0.4-0.5,0.9-1,1.4-1.6c27.3,49.7,24,130.5-40.3,180.1c-61.1,47.1-149.9,37.6-199.6-24
	c-49.3-61.1-41-152.3,22.4-202.9C114.7,7.6,197.6,18.4,243.4,64.6z"/>
</svg>
