<?xml version="1.0" encoding="utf-8"?>
<!-- Generator: Adobe Illustrator 24.0.1, SVG Export Plug-In . SVG Version: 6.00 Build 0)  -->
<svg version="1.1" id="Isolation_Mode" xmlns="http://www.w3.org/2000/svg" xmlns:xlink="http://www.w3.org/1999/xlink" x="0px"
	 y="0px" viewBox="0 0 3991.8 3995.6" style="enable-background:new 0 0 3991.8 3995.6;" xml:space="preserve">
<style type="text/css">
	.st0{fill:url(#SVGID_1_);}
	.st1{fill:url(#SVGID_2_);}
	.st2{fill:url(#SVGID_3_);}
	.st3{fill:#333333;}
	.st4{fill:url(#SVGID_4_);}
	.st5{fill:url(#XMLID_2_);}
	.st6{fill:url(#XMLID_3_);}
	.st7{fill:url(#XMLID_4_);}
	.st8{fill:#EBEBEB;}
	.st9{fill:#FFFFFF;}
</style>
<g>
	<g id="badge_6_">
		<g id="XMLID_83_">
			
				<linearGradient id="SVGID_1_" gradientUnits="userSpaceOnUse" x1="1995.925" y1="5063.0532" x2="1995.925" y2="-1995.2083" gradientTransform="matrix(1 0 0 -1 0 4352.1001)">
				<stop  offset="0" style="stop-color:#8D4B26"/>
				<stop  offset="6.129999e-02" style="stop-color:#D77E4C"/>
				<stop  offset="0.1323" style="stop-color:#F7C468"/>
				<stop  offset="0.1922" style="stop-color:#FFFE9A"/>
				<stop  offset="0.2451" style="stop-color:#F8A826"/>
				<stop  offset="0.3106" style="stop-color:#E16D15"/>
				<stop  offset="0.4777" style="stop-color:#803510"/>
				<stop  offset="0.4897" style="stop-color:#79310F"/>
				<stop  offset="0.5074" style="stop-color:#65250C"/>
				<stop  offset="0.5287" style="stop-color:#441307"/>
				<stop  offset="0.5292" style="stop-color:#431207"/>
				<stop  offset="0.5357" style="stop-color:#431207"/>
				<stop  offset="0.5734" style="stop-color:#431207"/>
				<stop  offset="0.5762" style="stop-color:#4D1608"/>
				<stop  offset="0.5856" style="stop-color:#672009"/>
				<stop  offset="0.5959" style="stop-color:#7B290A"/>
				<stop  offset="0.6076" style="stop-color:#892F0B"/>
				<stop  offset="0.6218" style="stop-color:#91320C"/>
				<stop  offset="0.6455" style="stop-color:#94330C"/>
				<stop  offset="0.6524" style="stop-color:#90310C"/>
				<stop  offset="0.6918" style="stop-color:#7F270C"/>
				<stop  offset="0.7406" style="stop-color:#74200C"/>
				<stop  offset="0.8093" style="stop-color:#6D1C0C"/>
				<stop  offset="1" style="stop-color:#6B1B0C"/>
			</linearGradient>
			<polygon class="st0" points="2106.2,3812.2 1998.8,3979.2 1890.9,3812.5 1764.5,3965.6 1677.1,3787.3 1533.5,3924.4 1467.7,3737 
				1309,3856.1 1265.8,3662.3 1094.1,3761.7 1074.1,3564.1 891.9,3642.5 895.4,3443.9 705.2,3500.2 732.1,3303.5 536.6,3336.8 
				586.6,3144.6 388.5,3154.6 460.8,2969.7 262.9,2956.1 356.6,2781 161.7,2744.1 275.4,2581.4 86.2,2521.7 218.3,2373.5 
				37.5,2291.8 186.2,2160.4 16.4,2057.8 179.5,1944.9 23,1823 198.3,1730.2 57.3,1590.5 242.3,1519.1 118.8,1363.8 311,1314.8 
				206.6,1145.9 403.3,1120.1 319.6,940 517.9,937.6 456.1,748.9 653.3,770 614.2,575.3 807.6,619.6 791.8,421.7 978.5,488.6 
				986.2,290.1 1163.7,378.7 1194.8,182.5 1360.6,291.5 1414.6,100.4 1566.4,228.2 1642.6,44.9 1778.2,189.8 1875.6,16.7 
				1993.1,176.7 2110.2,16.4 2208.1,189.1 2343.3,43.8 2420,226.9 2571.4,98.7 2626,289.6 2791.5,180.1 2823.2,376.2 3000.4,287.1 
				3008.7,485.5 3195.2,418.1 3180,616.1 3373.2,571.2 3334.7,766 3531.8,744.3 3470.6,933.2 3668.9,935 3585.8,1115.3 
				3782.5,1140.6 3678.7,1309.8 3871,1358.2 3747.9,1513.9 3933.2,1584.8 3792.6,1724.8 3968.2,1817.1 3812,1939.5 3975.5,2051.9 
				3805.9,2155 3955,2286 3774.5,2368.2 3907,2516 3718,2576.3 3832.2,2738.7 3637.4,2776.2 3731.6,2950.9 3533.8,2965.1 
				3606.6,3149.8 3408.5,3140.4 3459.1,3332.5 3263.4,3299.7 3290.9,3496.4 3100.6,3440.7 3104.7,3639.2 2922.2,3561.4 2902.8,3759 
				2730.8,3660.1 2688.2,3854 2529.1,3735.4 2463.9,3923 2319.9,3786.4 2233,3964.9 			"/>
			
				<linearGradient id="SVGID_2_" gradientUnits="userSpaceOnUse" x1="3305.2085" y1="3861.675" x2="685.1268" y2="847.6157" gradientTransform="matrix(1 0 0 -1 0 4352.1001)">
				<stop  offset="3.680000e-02" style="stop-color:#F7C468"/>
				<stop  offset="0.1922" style="stop-color:#9C2C00"/>
				<stop  offset="0.4937" style="stop-color:#F8A826"/>
				<stop  offset="0.7139" style="stop-color:#803510"/>
				<stop  offset="0.7431" style="stop-color:#873C11"/>
				<stop  offset="0.7863" style="stop-color:#9B4F15"/>
				<stop  offset="0.8384" style="stop-color:#BC6F1B"/>
				<stop  offset="0.8969" style="stop-color:#EA9A23"/>
				<stop  offset="0.9135" style="stop-color:#F8A826"/>
			</linearGradient>
			<path class="st1" d="M1998.8,3995.6l-108.8-168l-127.4,154.3l-88.2-179.7l-144.7,138.2l-66.3-188.9l-160.1,120l-43.6-195.4
				l-173.1,100.3l-20.2-199.2l-183.7,79l3.5-200.2l-191.8,56.7l27.1-198.4l-197.1,33.6l50.4-193.8l-199.7,10l72.9-186.4L248.6,2964
				l94.4-176.5l-196.5-37.2l114.6-164.1L70.4,2526l133.2-149.4l-182.3-82.4l149.9-132.5L0,2058.3l164.5-113.9L6.7,1821.5l176.8-93.6
				L41.2,1587.2l186.6-72l-124.6-156.6l193.8-49.4l-105.2-170.3l198.3-26.1l-84.4-181.6l200-2.4l-62.3-190.3l198.8,21.3l-39.4-196.3
				l194.9,44.7l-15.9-199.6l188.3,67.5l7.7-200.1l179,89.3l31.3-197.8l167.2,109.8l54.5-192.7l153,128.9l76.8-184.9l136.8,146.1
				l98.1-174.5l118.5,161.3L2111.2,0l98.6,174.2l136.3-146.5l77.4,184.6L2576.2,83l55,192.5l166.9-110.3l31.9,197.7l178.7-89.8
				l8.3,200.1l188.1-68l-15.4,199.6l194.8-45.3l-38.8,196.4l198.8-21.9l-61.8,190.4l200,1.8l-83.8,181.8l198.3,25.5l-104.7,170.6
				l193.9,48.8l-124.1,157l186.8,71.4l-141.8,141.2l177.1,93.1L3827,1939l164.8,113.4l-171,103.9l150.3,132.1l-182,82.9l133.6,149
				l-190.5,60.8l115.1,163.8l-196.4,37.8l95,176.2l-199.5,14.3l73.5,186.2l-199.8-9.4l51,193.6l-197.2-33l27.7,198.3l-191.9-56.2
				l4.1,200.2l-184-78.5l-19.6,199.3l-173.4-99.7l-43,195.6l-160.4-119.6l-65.8,189.1l-145.2-137.7l-87.6,180l-127.9-154
				L1998.8,3995.6z M1891.8,3797.5l107,165.3l106.5-165.6l125.8,151.4l86.2-177l142.8,135.5l64.7-186l157.8,117.6l42.3-192.4
				l170.6,98.1l19.2-196l180.9,77.2l-4-196.9l188.8,55.2l-27.3-195.1l194,32.5l-50.1-190.4l196.5,9.3l-72.3-183.2l196.2-14
				l-93.4-173.3l193.2-37.2l-113.2-161.1l187.4-59.8l-131.4-146.5l179-81.6L3791,2153.7l168.1-102.2L3797,1940l154.9-121.4
				l-174.2-91.5l139.5-138.9l-183.8-70.2l122.1-154.4l-190.8-48l103-167.8l-195.1-25.1l82.4-178.8l-196.7-1.8l60.7-187.3
				l-195.5,21.5l38.2-193.2l-191.6,44.5l15.1-196.4l-185,66.9l-8.2-196.8l-175.8,88.3l-31.4-194.4l-164.1,108.5l-54.1-189.3
				l-150.2,127.2L2340.4,60l-134.1,144.1l-97-171.3l-116.1,159L1876.6,33.1L1780,204.7L1645.5,61L1570,242.8l-150.5-126.8
				l-53.6,189.5l-164.4-108L1170.6,392l-176.1-87.8L986.9,501l-185.2-66.3L817.4,631l-191.7-43.9l38.8,193.1l-195.6-20.9l61.3,187.1
				l-196.7,2.4l83,178.6l-195,25.7l103.5,167.5L134.3,1369l122.5,154.1l-183.5,70.8l139.9,138.5l-173.9,92l155.3,120.9l-161.8,112
				L201.2,2159L53.7,2289.4l179.3,81l-131,146.9l187.6,59.2l-112.7,161.4l193.3,36.6l-92.9,173.6l196.2,13.4L401.8,3145l196.4-9.9
				l-49.6,190.6l193.9-33.1l-26.7,195.1l188.6-55.8l-3.5,196.9l180.7-77.8l19.8,195.9l170.3-98.6l42.8,192.2l157.4-118.1l65.2,185.8
				l142.4-135.9l86.7,176.8L1891.8,3797.5z"/>
		</g>
		<g id="XMLID_82_">
			<path d="M1995.9,3717c-946.7,0-1717-771.2-1717-1719.2s770.2-1719.2,1717-1719.2s1717,771.2,1717,1719.2
				C3712.9,2945.8,2942.7,3717,1995.9,3717z M1995.9,312.3c-928.2,0-1683.3,756.1-1683.3,1685.5s755.1,1685.5,1683.3,1685.5
				s1683.3-756.1,1683.3-1685.5S2924.1,312.3,1995.9,312.3z"/>
		</g>
		
			<linearGradient id="SVGID_3_" gradientUnits="userSpaceOnUse" x1="1995.9299" y1="4156.2534" x2="1995.9299" y2="-2143.0647" gradientTransform="matrix(1 0 0 -1 0 4352.1001)">
			<stop  offset="0" style="stop-color:#8D4B26"/>
			<stop  offset="6.129999e-02" style="stop-color:#D77E4C"/>
			<stop  offset="0.1323" style="stop-color:#F7C468"/>
			<stop  offset="0.1922" style="stop-color:#FFFE9A"/>
			<stop  offset="0.2451" style="stop-color:#F8A826"/>
			<stop  offset="0.3106" style="stop-color:#E16D15"/>
			<stop  offset="0.4777" style="stop-color:#803510"/>
			<stop  offset="0.4897" style="stop-color:#79310F"/>
			<stop  offset="0.5074" style="stop-color:#65250C"/>
			<stop  offset="0.5287" style="stop-color:#441307"/>
			<stop  offset="0.5292" style="stop-color:#431207"/>
			<stop  offset="0.5419" style="stop-color:#431207"/>
			<stop  offset="0.6156" style="stop-color:#431207"/>
			<stop  offset="0.6213" style="stop-color:#461307"/>
			<stop  offset="0.6642" style="stop-color:#571609"/>
			<stop  offset="0.7173" style="stop-color:#62190B"/>
			<stop  offset="0.7922" style="stop-color:#691B0C"/>
			<stop  offset="1" style="stop-color:#6B1B0C"/>
		</linearGradient>
		<path class="st2" d="M1995.9,3766.1c-973.8,0-1766-793.3-1766-1768.4s792.2-1768.3,1766-1768.3s1766,793.3,1766,1768.3
			C3761.9,2972.9,2969.7,3766.1,1995.9,3766.1z M1995.9,291.2c-939.8,0-1704.3,765.6-1704.3,1706.6s764.6,1706.6,1704.3,1706.6
			s1704.3-765.6,1704.3-1706.6S2935.7,291.2,1995.9,291.2z"/>
		<path class="st3" d="M1995.9,3686.9c-930.1,0-1686.9-757.7-1686.9-1689.1S1065.8,308.7,1995.9,308.7s1686.9,757.7,1686.9,1689.1
			C3682.8,2929.1,2926.1,3686.9,1995.9,3686.9z M1995.9,835c-640.3,0-1161.3,521.6-1161.3,1162.8s520.9,1162.8,1161.3,1162.8
			S3157.2,2639,3157.2,1997.8C3157.2,1356.6,2636.3,835,1995.9,835z"/>
		
			<linearGradient id="SVGID_4_" gradientUnits="userSpaceOnUse" x1="1996.25" y1="662.6003" x2="1996.25" y2="2437.1292" gradientTransform="matrix(1 0 0 -1 0 4352.1001)">
			<stop  offset="0" style="stop-color:#000000"/>
			<stop  offset="1" style="stop-color:#000000"/>
		</linearGradient>
		<path class="st4" d="M3670.5,2200.9c-161.6-55.7-333.9-103.5-514.9-142.5c-31.6,613.1-539.7,1102.1-1159.7,1102.1
			c-618.8,0-1126-487.1-1159.5-1098.5c-181,39.6-353.2,88.1-514.5,144.5c103,833.2,814.4,1480.3,1674,1480.3
			C2857.4,3686.9,3570,3036.9,3670.5,2200.9z"/>
		<path id="XMLID_79_" d="M1995.9,3161.9c-641.1,0-1162.7-522.2-1162.7-1164.2c0-641.9,521.6-1164.2,1162.7-1164.2
			c641.1,0,1162.6,522.2,1162.6,1164.2S2637,3161.9,1995.9,3161.9z M1995.9,866.1c-623.2,0-1130.2,507.7-1130.2,1131.7
			c0,624,507,1131.6,1130.2,1131.6c623.2,0,1130.1-507.7,1130.1-1131.6C3126.1,1373.8,2619.1,866.1,1995.9,866.1z"/>
		<g>
			<g id="XMLID_76_">
				
					<linearGradient id="XMLID_2_" gradientUnits="userSpaceOnUse" x1="1995.8302" y1="4312.8442" x2="1995.8302" y2="-277.7213" gradientTransform="matrix(1 0 0 -1 0 4352.1001)">
					<stop  offset="0" style="stop-color:#8D4B26"/>
					<stop  offset="6.129999e-02" style="stop-color:#D77E4C"/>
					<stop  offset="0.1323" style="stop-color:#F7C468"/>
					<stop  offset="0.1922" style="stop-color:#FFFE9A"/>
					<stop  offset="0.2451" style="stop-color:#F8A826"/>
					<stop  offset="0.3106" style="stop-color:#E16D15"/>
					<stop  offset="0.4777" style="stop-color:#803510"/>
					<stop  offset="0.4897" style="stop-color:#79310F"/>
					<stop  offset="0.5074" style="stop-color:#65250C"/>
					<stop  offset="0.5287" style="stop-color:#441307"/>
					<stop  offset="0.5292" style="stop-color:#431207"/>
					<stop  offset="0.5419" style="stop-color:#431207"/>
					<stop  offset="0.6156" style="stop-color:#431207"/>
					<stop  offset="0.6178" style="stop-color:#461307"/>
					<stop  offset="0.6344" style="stop-color:#571609"/>
					<stop  offset="0.655" style="stop-color:#62190B"/>
					<stop  offset="0.6841" style="stop-color:#691B0C"/>
					<stop  offset="0.7646" style="stop-color:#6B1B0C"/>
					<stop  offset="0.8858" style="stop-color:#430B06"/>
					<stop  offset="0.9119" style="stop-color:#2A0704"/>
					<stop  offset="0.9441" style="stop-color:#130302"/>
					<stop  offset="0.9742" style="stop-color:#050100"/>
					<stop  offset="1" style="stop-color:#000000"/>
				</linearGradient>
				<path id="XMLID_78_" class="st5" d="M3129.5,2051.7c0,0.9-2267.2,13.5-2267.4,9.8C890.5,1452.1,1380,957.5,1995.6,957.5
					C2611.2,957.5,3101.1,1442.3,3129.5,2051.7z"/>
				
					<linearGradient id="XMLID_3_" gradientUnits="userSpaceOnUse" x1="1995.8302" y1="163.241" x2="1995.8302" y2="4934.729" gradientTransform="matrix(1 0 0 -1 0 4352.1001)">
					<stop  offset="0" style="stop-color:#8D4B26"/>
					<stop  offset="6.129999e-02" style="stop-color:#D77E4C"/>
					<stop  offset="0.1323" style="stop-color:#F7C468"/>
					<stop  offset="0.1922" style="stop-color:#FFFE9A"/>
					<stop  offset="0.2451" style="stop-color:#F8A826"/>
					<stop  offset="0.3106" style="stop-color:#E16D15"/>
					<stop  offset="0.4777" style="stop-color:#803510"/>
					<stop  offset="0.4897" style="stop-color:#79310F"/>
					<stop  offset="0.5074" style="stop-color:#65250C"/>
					<stop  offset="0.5287" style="stop-color:#441307"/>
					<stop  offset="0.5292" style="stop-color:#431207"/>
					<stop  offset="0.5419" style="stop-color:#431207"/>
					<stop  offset="0.6156" style="stop-color:#431207"/>
					<stop  offset="0.6178" style="stop-color:#461307"/>
					<stop  offset="0.6344" style="stop-color:#571609"/>
					<stop  offset="0.655" style="stop-color:#62190B"/>
					<stop  offset="0.6841" style="stop-color:#691B0C"/>
					<stop  offset="0.7646" style="stop-color:#6B1B0C"/>
					<stop  offset="0.8858" style="stop-color:#430B06"/>
					<stop  offset="0.9119" style="stop-color:#2A0704"/>
					<stop  offset="0.9441" style="stop-color:#130302"/>
					<stop  offset="0.9742" style="stop-color:#050100"/>
					<stop  offset="1" style="stop-color:#000000"/>
				</linearGradient>
				<path id="XMLID_77_" class="st6" d="M3129.5,2051.7c-29.4,601.1-526.4,1082.1-1133.9,1082.1
					c-604.7,0-1099.9-475.1-1133.4-1072.2C1333.6,1924,2401.9,1852.4,3129.5,2051.7z"/>
			</g>
			
				<linearGradient id="XMLID_4_" gradientUnits="userSpaceOnUse" x1="1995.83" y1="1260.311" x2="1995.83" y2="6727.8955" gradientTransform="matrix(1 0 0 -1 0 4352.1001)">
				<stop  offset="0" style="stop-color:#8D4B26"/>
				<stop  offset="6.129999e-02" style="stop-color:#D77E4C"/>
				<stop  offset="0.1323" style="stop-color:#F7C468"/>
				<stop  offset="0.1922" style="stop-color:#FFFE9A"/>
				<stop  offset="0.2451" style="stop-color:#F8A826"/>
				<stop  offset="0.3106" style="stop-color:#E16D15"/>
				<stop  offset="0.4777" style="stop-color:#803510"/>
				<stop  offset="0.4897" style="stop-color:#79310F"/>
				<stop  offset="0.5074" style="stop-color:#65250C"/>
				<stop  offset="0.5287" style="stop-color:#441307"/>
				<stop  offset="0.5292" style="stop-color:#431207"/>
				<stop  offset="0.5419" style="stop-color:#431207"/>
				<stop  offset="0.6156" style="stop-color:#431207"/>
				<stop  offset="0.6178" style="stop-color:#461307"/>
				<stop  offset="0.6344" style="stop-color:#571609"/>
				<stop  offset="0.655" style="stop-color:#62190B"/>
				<stop  offset="0.6841" style="stop-color:#691B0C"/>
				<stop  offset="0.7646" style="stop-color:#6B1B0C"/>
				<stop  offset="0.8858" style="stop-color:#430B06"/>
				<stop  offset="0.9119" style="stop-color:#2A0704"/>
				<stop  offset="0.9441" style="stop-color:#130302"/>
				<stop  offset="0.9742" style="stop-color:#050100"/>
				<stop  offset="1" style="stop-color:#000000"/>
			</linearGradient>
			<path id="XMLID_66_" class="st7" d="M3129.6,1998.6c0,16.9-0.3,33.8-1.3,50.7c-26-603.5-523.1-1084.7-1132.6-1084.7
				c-609.2,0-1106.3,481.2-1132.6,1084.7c-0.8-16.9-1.1-33.8-1.1-50.7c0-626.9,507.6-1135.1,1133.6-1135.1
				C2622,863.4,3129.6,1371.7,3129.6,1998.6z"/>
		</g>
		<polygon class="st8" points="3423.6,1821.8 3380,1956.2 3238.8,1956.2 3353,2039.3 3309.4,2173.8 3423.6,2090.7 3537.8,2173.8 
			3494.2,2039.3 3608.4,1956.2 3467.2,1956.2 		"/>
		<polygon class="st8" points="569.4,1821.8 613,1956.2 754.2,1956.2 640,2039.3 683.6,2173.8 569.4,2090.7 455.2,2173.8 
			498.8,2039.3 384.6,1956.2 525.8,1956.2 		"/>
		<g>
			<g>
				<path class="st9" d="M2151.3,1450.7c28.5-27.4,79.8-67.3,174.4-67.3c34.2,0,100.3,2.3,164.1,63.9
					c62.7,61.6,103.7,162,103.7,345.7c0,142.6-33.1,224.8-67.2,278.4c-20.5,31.9-38.7,47.9-50.1,59.3
					c-42.2,35.4-93.4,53.6-148.1,54.8c-20.5,1.1-88.9,0-143.6-37.7c-10.3-6.8-28.5-18.2-47.9-42.2
					c-93.4-110.7-91.2-294.4-91.2-322.9C2045.3,1672.1,2068.1,1532.8,2151.3,1450.7z M2243.6,1981.3c4.6,10.3,26.2,65,80.9,62.8
					c15.9-1.1,26.2-6.8,31.9-10.3c22.8-13.7,38.7-37.7,52.4-92.4c10.2-42.2,15.9-94.7,15.9-186c0-14.8,0-75.3-14.8-134.6
					c-19.4-77.6-55.8-95.9-91.2-95.9c-11.4,0-35.3,2.3-53.6,22.8c-43.3,47.9-49,176.9-49,233.9
					C2216.2,1786.2,2215.1,1912.8,2243.6,1981.3z"/>
				<path class="st9" d="M1449.1,1491.8c15.9-22.8,35.3-42.2,59.2-58.2c27.4-18.3,84.3-45.6,167.5-45.6c23.9,0,85.5,2.3,144.7,41.1
					c77.5,51.4,132.2,148.3,132.2,340c0,18.3,1.1,165.4-43.3,263.6c-15.9,35.4-33.1,55.9-43.3,68.5
					c-58.1,67.3-128.8,87.9-214.2,87.9c-29.6,0-111.7-1.1-174.4-67.3c-26.2-28.5-38.7-58.2-44.4-70.7c-10.3-24-14.8-47.9-19.4-71.9
					l183.5-19.4c0,10.3-4.6,47.9,23.9,74.2c18.2,16,37.6,17.1,46.7,17.1c6.8,0,21.6-1.1,38.7-10.3c30.8-16,42.2-42.2,51.3-73
					c12.5-42.2,18.2-76.4,20.5-160.9c-9.1,17.1-15.9,28.5-30.8,42.2c-20.5,18.2-64.9,47.9-136.7,47.9c-27.4,0-90-5.7-143.6-57.1
					c-68.4-65-68.4-149.5-68.4-179.1C1399,1571.7,1427.5,1521.4,1449.1,1491.8z M1628,1758.8c6.8,2.3,22.8,9.1,43.3,8
					c39.9-3.4,85.5-33.1,85.5-119.8c0-59.3-17.1-89-37.6-106.1c-20.5-17.1-42.2-18.3-52.4-18.3c-8,0-26.2,1.1-45.6,12.6
					c-28.5,16-47.9,46.8-47.9,113C1573.3,1715.4,1598.4,1746.2,1628,1758.8z"/>
			</g>
			<g>
				<path class="st9" d="M1491,2322.2h142.9c55.2,0,98.9,15.1,131,45.4c32.1,30.3,48.1,69.4,48.1,117.4c0,50.3-16.3,89.9-48.8,118.6
					s-79,43.1-139.3,43.1H1491V2322.2z M1571.7,2381.7v205.6h52.7c34.2,0,60.3-9.4,78.4-28.2c18.1-18.8,27.1-43.6,27.1-74.4
					c0-31.9-9.2-57-27.5-75.4c-18.3-18.4-44.7-27.5-79-27.5L1571.7,2381.7L1571.7,2381.7z"/>
				<path class="st9" d="M2059.6,2322.2l143.9,324.5h-86.8l-26.7-64.1h-145.2l-24.2,64.1h-85.6l130.9-324.5H2059.6z M2066.4,2525.9
					l-52.5-126.1l-47.6,126.1H2066.4z"/>
				<path class="st9" d="M2304.1,2646.7v-151.4l-127.8-173.1h97.9l70.3,102l70.6-102h97.6l-127.8,173.2v151.3H2304.1z"/>
			</g>
		</g>
		<g>
			<path class="st8" d="M737.5,2961.2l-39.7-46.2l248-212.9l63.2,73.6l-93.8,123.6c-15.4,20.1-32.4,39.2-49.8,57.7l0.6,0.7
				c26.5-18.7,44.4-31.2,63.5-41.9l136.3-74l62.9,73.3L880.7,3128l-39.7-46.2l78.1-67c49.3-42.3,99.4-83.6,151.2-122.9l-0.6-0.7
				l-268.4,144.4l-24.1-28.1L961.4,2765l-1.4-1.6c-46.7,45.3-95.2,88.6-144.4,130.9L737.5,2961.2z"/>
			<path class="st8" d="M1096.2,3064.7c50.6-66.2,91.9-112.7,171.2-55.9s48.6,110.9,2.2,180.1l-27.1,37.9
				c-50.7,70.9-93.1,118.8-174.5,60.6s-49.7-113.8,1.1-184.7L1096.2,3064.7z M1102.3,3163.9c-15.7,22-39.6,59-5.6,83.4
				c35.4,25.3,61.9-10.9,80.1-36.4l48.7-68c15.2-21.3,50-67.6,13.2-94c-38.9-27.9-69,20.8-83.7,41.4L1102.3,3163.9z"/>
			<path class="st8" d="M1540,3165.9l56,24l-128.6,300.5l-58.4-25l2.2-125.6c0.5-42,4.1-83.6,11.1-136.5l-0.8-0.3
				c-8.6,25.7-19.3,57.2-30.7,88.3c-11.3,30.7-22.9,61.3-33.2,85.3l-24.2,56.5l-56-24l128.6-300.5l58,24.8l-3.2,128.1
				c-0.5,41-3.8,81.8-11.1,136.5l0.8,0.3c9.7-28.1,20.2-58.2,30.9-87.7c10.8-29.5,21.9-58.9,33.4-85.7L1540,3165.9z"/>
			<path class="st8" d="M1596.3,3528.4l65.8-320.2l168,34.5l-9.6,47l-108.3-22.3l-16.6,80.7l99.8,20.5l-9.6,47l-99.8-20.5
				l-20.3,98.6l108.3,22.2l-9.6,47L1596.3,3528.4z"/>
			<path class="st8" d="M1966.3,3335.8c6.3,16.2,11.2,32.9,13.5,50.4l0.9,0c4.8-25.2,13.3-43.4,21-61.6l30.4-73.6l66.6,1.1
				l-89.2,186.4l-2.3,139l-60.9-1l2.3-139l-81.8-189.2l66.6,1.1L1966.3,3335.8z"/>
			<path class="st8" d="M2370.6,3535.3l-95.4-312.6l94.1-28.7c25-7.6,50-13.5,73.2,2.7c18.5,13,26.1,30.3,32.6,51.6
				c8.3,27.1,10.6,55.6-17.5,76.9l0.2,0.8c34.3-5.4,55.2,18.2,67.5,58.7c3.9,12.9,7.1,26.1,7.5,39.6c-0.4,43.4-17.8,66.9-59.4,79.7
				L2370.6,3535.3z M2382.9,3327.9c14.2-4.3,32.7-9.1,38.3-23.6c3-9.6,0.5-20.7-4.1-35.7c-7.1-23.3-15.7-33.5-42.6-26.2l-27.1,8.3
				l24.6,80.4L2382.9,3327.9z M2427.4,3467.9c12.1-3.7,24.9-6.2,33.9-14c13.7-11.9,9.5-33,4.7-48.8c-10.3-33.8-21.3-45.9-57.5-34.8
				l-22.5,6.9l28.9,94.6L2427.4,3467.9z"/>
			<path class="st8" d="M2649.5,3441.2l-87.5-324.4l72.3-39.3l221,251.9l-57.4,31.2l-53.7-65.1l-62.7,34.1l25.4,80.4L2649.5,3441.2z
				 M2667.1,3282.9l45.9-24.9l-58.8-73.7c-10-11.9-18.2-24.4-27-36.9c-3.9-6.3-8.2-12.4-12.3-18.1l-0.8,0.4
				c2.6,6.5,5.3,13.5,8.5,20.2c5.8,14.2,11.7,27.9,16.3,42.7L2667.1,3282.9z"/>
			<path class="st8" d="M3018.4,3052.1c3.6,5,7.4,10.2,11,15.2c36,47.8,50,95.7-2.1,139.3c-76.8,64.3-122.6,19.6-178.6-47.2
				l-29.9-35.8c-51.4-65.5-86.1-117.2-11.4-179.8c42.3-34.2,83.5-32.4,122.7,7.6c6,5.8,12,11.6,17,18.2l-46.1,38.6
				c-15.4-14.4-38.9-45.8-62-26.6c-36.7,30.7,2.9,72,19.2,91.4l58.2,69.5c17.3,20.7,47.3,53.1,79.3,26.3
				c25.7-21.5-12-60.4-24.4-77.3L3018.4,3052.1z"/>
			<path class="st8" d="M3179.8,3051.3l-255-204.5l38.1-47.5l113.2,90.8l0.5-0.7c-14.1-23.6-26.7-53.8-37.2-79l-29.7-69.6l43-53.6
				l59.1,150.6l198.4,50.8l-43,53.6l-136.6-35.9l14.2,38.7l73.1,58.6L3179.8,3051.3z"/>
		</g>
		<g>
			<path class="st8" d="M979.3,1228.7l-39.3,46.6l-249.7-210.9l62.6-74.2l136.9,72.9c22.3,12,43.9,25.7,64.9,40l0.6-0.7
				c-22.7-23.1-37.9-38.9-51.4-56L809,923.7l62.3-73.8l249.7,210.9l-39.3,46.6l-78.6-66.4c-49.6-41.9-98.4-84.8-145.5-129.7
				l-0.6,0.7l185.3,241.9l-23.9,28.3L749.9,1039l-1.4,1.7c52.1,38.9,102.6,79.8,152.2,121.7L979.3,1228.7z"/>
			<path class="st8" d="M1056.6,869.2c-46.9-68.8-78.1-122.7,0.8-180.1c78.8-57.4,120.5-11.2,171.7,54.5l27.4,37.7
				c51.3,70.4,83.5,125.7,2.6,184.7c-80.9,58.9-123.7,11.4-175-59.1L1056.6,869.2z M1152.7,894.6c15.9,21.8,43.6,56.1,77.4,31.5
				c35.2-25.6,9.1-62.2-9.4-87.5l-49.3-67.6c-15.4-21.1-48.5-68.8-85.1-42.1c-38.7,28.2-1.9,72,13,92.5L1152.7,894.6z"/>
			<path class="st8" d="M1399.2,507.1l55.8-24.4l131.1,299.4l-58.2,25.5l-90.1-87.6c-30.3-29.1-58.2-60.2-92-101.5l-0.8,0.3
				c12.8,23.9,28.5,53.2,43.4,82.8c14.7,29.2,29,58.7,39.5,82.6l24.7,56.3l-55.8,24.4l-131.1-299.4l57.8-25.3l91.2,90
				c29.6,28.4,57.1,58.7,92,101.5l0.8-0.3c-13.9-26.3-28.6-54.5-42.8-82.6c-14.2-28.1-28-56.3-39.7-83L1399.2,507.1z"/>
			<path class="st8" d="M1652,763.2l-68.5-319.6l167.7-35.9l10,46.9l-108.1,23.2l17.3,80.6l99.6-21.3l10,46.9l-99.6,21.3l21.1,98.4
				l108.1-23.2l10,46.9L1652,763.2z"/>
			<path class="st8" d="M1951.7,477.9c6.8,16,12.4,32.5,15.3,49.8l0.9,0c3.9-25.4,11.8-43.8,18.8-62.3l27.7-74.6l66.6-1.3
				L1998.5,579l2.7,139l-60.9,1.2l-2.7-139L1849.1,394l66.6-1.3L1951.7,477.9z"/>
			<path class="st8" d="M2265,743.6l92.8-313.4l94.3,27.9c25,7.4,49.2,16.4,59.6,42.6c8.3,21.1,5,39.7-1.3,61
				c-8,27.2-21.8,52.2-57,54.5l-0.2,0.8c31.6,14.4,36,45.7,23.9,86.2c-3.8,12.9-8.5,25.7-15.5,37.2c-24.3,36-51.8,46-93.5,33.7
				L2265,743.6z M2349.5,718.7c12.1,3.6,24.2,8.6,36,7c18-2.4,26.1-22.3,30.8-38.1c10-33.8,7.5-50-28.8-60.8l-22.5-6.7l-28.1,94.8
				L2349.5,718.7z M2389.6,577.4c14.2,4.2,32.3,10.5,45,1.5c7.8-6.3,11.8-16.9,16.3-32c6.9-23.4,5.4-36.6-21.1-45.3l-27.1-8
				l-23.9,80.7L2389.6,577.4z"/>
			<path class="st8" d="M2483.9,810.5l222.4-251.9l72.6,38.7l-88.3,323.3l-57.6-30.7l24.7-80.7l-63-33.6l-53.1,65.5L2483.9,810.5z
				 M2625.7,737.9l46.1,24.6l29-89.7c4.5-14.9,10.3-28.6,15.9-42.9c3.1-6.7,5.8-13.7,8.3-20.2l-0.8-0.4c-4,5.8-8.3,11.9-12.2,18.2
				c-8.7,12.7-16.8,25.1-26.7,37.1L2625.7,737.9z"/>
			<path class="st8" d="M2949.8,980.8c-4.2,4.4-8.7,9.2-12.9,13.6c-40.3,44.2-84.8,66.8-137.3,23.6
				c-77.3-63.6-41.9-116.9,13.5-184.2l29.6-36c54.9-62.6,99.3-106.2,174.6-44.3c41.5,35.2,47.3,76.2,15.2,122
				c-4.6,6.9-9.2,13.9-14.8,20l-46.4-38.2c11.3-17.8,37.9-46.7,14.7-65.8c-37-30.4-70.2,16.1-86.3,35.7l-57.6,70
				c-17.2,20.9-43.5,56.2-11.2,82.8c25.9,21.3,57.2-22.9,71.5-38.2L2949.8,980.8z"/>
			<path class="st8" d="M2917.7,1114.1L3171,907.6l38.5,47.2l-112.5,91.7l0.5,0.7c26-8.8,58.2-14.9,85-19.9l74.2-14.5l43.5,53.3
				l-159.6,26.3l-91.2,183.3l-43.5-53.3l63.7-126.1l-40.8,5.8l-72.6,59.2L2917.7,1114.1z"/>
		</g>
	</g>
</g>
</svg>
