<?xml version="1.0" encoding="utf-8"?>
<!-- Generator: Adobe Illustrator 24.0.3, SVG Export Plug-In . SVG Version: 6.00 Build 0)  -->
<svg version="1.1" id="Layer_1" xmlns="http://www.w3.org/2000/svg" xmlns:xlink="http://www.w3.org/1999/xlink" x="0px" y="0px"
	 viewBox="0 0 413.5 51.8" style="enable-background:new 0 0 413.5 51.8;" xml:space="preserve">
<style type="text/css">
	.st0{display:none;}
	.st1{fill:#E26A1A;}
	.st2{fill:#E9E8E8;}
	.st3{fill:#292929;}
	.st4{fill:#BFBEBE;}
	.st5{fill:#F7F8F8;}
	.st6{fill:#FFFFFF;}
</style>
<g id="Layer_1_1_" class="st0">
	
		<image style="display:inline;overflow:visible;enable-background:new    ;" width="441" height="54" xlink:href="A96E33937FD761AC.jpeg"  transform="matrix(0.9814 0 0 0.9814 -2.7552 0)">
	</image>
</g>
<g id="Layer_2_1_">
	<circle class="st1" cx="42.5" cy="15.8" r="15.8"/>
	<circle class="st1" cx="213.9" cy="15.8" r="15.8"/>
	<circle class="st2" cx="385.4" cy="15.8" r="15.8"/>
	<path class="st2" d="M360.2,18.5h-121c-0.8,0-1.4-0.6-1.4-1.4l0,0c0-0.8,0.6-1.4,1.4-1.4h121c0.8,0,1.4,0.6,1.4,1.4l0,0
		C361.6,17.9,361,18.5,360.2,18.5z"/>
	<path class="st1" d="M188.6,18.5h-121c-0.8,0-1.4-0.6-1.4-1.4l0,0c0-0.8,0.6-1.4,1.4-1.4h121c0.8,0,1.4,0.6,1.4,1.4l0,0
		C189.9,17.9,189.3,18.5,188.6,18.5z"/>
	<g>
		<path class="st3" d="M4.9,47.1c0-0.4-0.1-0.7-0.4-0.9s-0.7-0.4-1.4-0.6s-1.2-0.4-1.6-0.7c-0.8-0.5-1.2-1.1-1.2-1.9
			c0-0.7,0.3-1.2,0.8-1.7s1.3-0.7,2.2-0.7c0.6,0,1.1,0.1,1.6,0.3s0.8,0.5,1.1,0.9s0.4,0.8,0.4,1.3H4.9c0-0.5-0.1-0.8-0.4-1
			s-0.7-0.4-1.2-0.4c-0.5,0-0.9,0.1-1.1,0.3S1.7,42.6,1.7,43c0,0.3,0.1,0.6,0.4,0.8s0.8,0.4,1.4,0.6s1.2,0.4,1.6,0.7
			s0.7,0.5,0.9,0.9s0.3,0.7,0.3,1.2c0,0.7-0.3,1.3-0.8,1.7s-1.3,0.6-2.2,0.6c-0.6,0-1.2-0.1-1.7-0.3s-0.9-0.5-1.2-1S0,47.2,0,46.7
			h1.5c0,0.5,0.2,0.9,0.5,1.1s0.8,0.4,1.4,0.4c0.5,0,0.9-0.1,1.2-0.3S4.9,47.4,4.9,47.1z"/>
		<path class="st3" d="M10.6,49.4c-0.9,0-1.6-0.3-2.2-0.8s-0.8-1.3-0.8-2.3v-0.2c0-0.6,0.1-1.2,0.4-1.7s0.6-0.9,1-1.2
			s0.9-0.4,1.5-0.4c0.9,0,1.5,0.3,2,0.8s0.7,1.3,0.7,2.3v0.6H9c0,0.5,0.2,0.9,0.5,1.2s0.7,0.5,1.2,0.5c0.6,0,1.2-0.3,1.6-0.8
			l0.8,0.7c-0.2,0.4-0.6,0.7-1,0.9S11.1,49.4,10.6,49.4z M10.4,44c-0.4,0-0.7,0.1-0.9,0.4S9.1,45,9,45.5h2.7v-0.1
			c0-0.5-0.2-0.8-0.4-1.1S10.8,44,10.4,44z"/>
		<path class="st3" d="M16,49.3h-1.4v-9H16V49.3z"/>
		<path class="st3" d="M20.5,49.4c-0.9,0-1.6-0.3-2.2-0.8s-0.8-1.3-0.8-2.3v-0.2c0-0.6,0.1-1.2,0.4-1.7s0.6-0.9,1-1.2
			s0.9-0.4,1.5-0.4c0.9,0,1.5,0.3,2,0.8s0.7,1.3,0.7,2.3v0.6H19c0,0.5,0.2,0.9,0.5,1.2s0.7,0.5,1.2,0.5c0.6,0,1.2-0.3,1.6-0.8
			l0.8,0.7c-0.2,0.4-0.6,0.7-1,0.9S21.1,49.4,20.5,49.4z M20.4,44c-0.4,0-0.7,0.1-1,0.4S19,45,19,45.5h2.7v-0.1
			c0-0.5-0.2-0.8-0.4-1.1S20.8,44,20.4,44z"/>
		<path class="st3" d="M27,48.3c0.4,0,0.6-0.1,0.9-0.3s0.4-0.5,0.4-0.8h1.3c0,0.4-0.1,0.8-0.4,1.1s-0.5,0.6-0.9,0.8
			s-0.8,0.3-1.3,0.3c-0.9,0-1.6-0.3-2.1-0.9s-0.8-1.4-0.8-2.4V46c0-1,0.3-1.7,0.8-2.3s1.2-0.9,2.1-0.9c0.8,0,1.4,0.2,1.8,0.7
			s0.7,1,0.8,1.7h-1.3c0-0.4-0.1-0.7-0.4-0.9S27.4,44,27,44c-0.5,0-0.8,0.2-1.1,0.5s-0.4,0.8-0.4,1.5v0.2c0,0.7,0.1,1.2,0.4,1.5
			S26.6,48.3,27,48.3z"/>
		<path class="st3" d="M32.8,41.4v1.5h1.1V44h-1.1v3.5c0,0.2,0,0.4,0.1,0.5s0.3,0.2,0.5,0.2c0.2,0,0.3,0,0.5-0.1v1.1
			c-0.3,0.1-0.6,0.1-0.9,0.1c-1.1,0-1.6-0.6-1.6-1.8V44h-1v-1h1v-1.5H32.8z"/>
		<path class="st3" d="M40,46.1v3.2h-1.5v-8.5h3.3c1,0,1.7,0.2,2.3,0.8s0.8,1.2,0.8,2c0,0.8-0.3,1.5-0.8,2c-0.5,0.5-1.3,0.7-2.3,0.7
			C41.8,46.1,40,46.1,40,46.1z M40,44.9h1.8c0.5,0,0.9-0.1,1.2-0.4s0.4-0.6,0.4-1.1c0-0.5-0.1-0.8-0.4-1.1S42.4,42,41.9,42H40
			L40,44.9L40,44.9z"/>
		<path class="st3" d="M50.1,49.3c-0.1-0.1-0.1-0.3-0.2-0.6c-0.5,0.5-1,0.7-1.7,0.7c-0.6,0-1.2-0.2-1.6-0.5s-0.6-0.8-0.6-1.3
			c0-0.7,0.2-1.2,0.8-1.6s1.2-0.5,2.2-0.5h0.9V45c0-0.3-0.1-0.6-0.3-0.8s-0.5-0.3-0.8-0.3c-0.3,0-0.6,0.1-0.8,0.2s-0.3,0.4-0.3,0.6
			h-1.4c0-0.3,0.1-0.7,0.3-1s0.5-0.5,0.9-0.7s0.8-0.3,1.3-0.3c0.7,0,1.3,0.2,1.8,0.6s0.7,0.9,0.7,1.6v2.9c0,0.6,0.1,1,0.2,1.4v0.1
			L50.1,49.3L50.1,49.3z M48.5,48.3c0.3,0,0.5-0.1,0.8-0.2s0.4-0.3,0.6-0.5v-1.2h-0.8c-0.5,0-0.9,0.1-1.2,0.3s-0.4,0.4-0.4,0.8
			c0,0.3,0.1,0.5,0.3,0.7S48.2,48.3,48.5,48.3z"/>
		<path class="st3" d="M55.6,48.3c0.4,0,0.7-0.1,0.9-0.3s0.4-0.5,0.4-0.8h1.3c0,0.4-0.1,0.8-0.4,1.1s-0.5,0.6-0.9,0.8
			s-0.8,0.3-1.3,0.3c-0.9,0-1.6-0.3-2.1-0.9s-0.8-1.4-0.8-2.4V46c0-1,0.3-1.7,0.8-2.3s1.2-0.9,2.1-0.9c0.8,0,1.4,0.2,1.8,0.7
			s0.7,1,0.8,1.7h-1.3c0-0.4-0.1-0.7-0.4-0.9S56,44,55.6,44c-0.5,0-0.8,0.2-1.1,0.5s-0.4,0.8-0.4,1.5v0.2c0,0.7,0.1,1.2,0.4,1.5
			S55.1,48.3,55.6,48.3z"/>
		<path class="st3" d="M61.6,46.6L61,47.2v2.1h-1.4v-9H61v5.2l0.5-0.6l1.8-2h1.7l-2.4,2.6l2.6,3.7h-1.7L61.6,46.6z"/>
		<path class="st3" d="M69.8,49.3c-0.1-0.1-0.1-0.3-0.2-0.6c-0.4,0.5-1,0.7-1.7,0.7c-0.6,0-1.2-0.2-1.6-0.5s-0.6-0.8-0.6-1.3
			c0-0.7,0.2-1.2,0.8-1.6s1.2-0.5,2.2-0.5h0.9V45c0-0.3-0.1-0.6-0.3-0.8s-0.5-0.3-0.8-0.3c-0.3,0-0.6,0.1-0.8,0.2s-0.3,0.4-0.3,0.6
			H66c0-0.3,0.1-0.7,0.3-1s0.5-0.5,0.9-0.7s0.8-0.3,1.3-0.3c0.7,0,1.3,0.2,1.8,0.6S71,44.3,71,45v2.9c0,0.6,0.1,1,0.2,1.4v0.1
			L69.8,49.3L69.8,49.3z M68.2,48.3c0.3,0,0.6-0.1,0.8-0.2s0.4-0.3,0.6-0.5v-1.2h-0.8c-0.5,0-0.9,0.1-1.2,0.3s-0.4,0.4-0.4,0.8
			c0,0.3,0.1,0.5,0.3,0.7S67.9,48.3,68.2,48.3z"/>
		<path class="st3" d="M72.5,46.1c0-1,0.2-1.8,0.7-2.4s1.1-0.9,1.8-0.9c0.7,0,1.3,0.2,1.7,0.8l0.1-0.6h1.3v6.2c0,0.8-0.3,1.5-0.8,2
			s-1.2,0.7-2.1,0.7c-0.5,0-0.9-0.1-1.4-0.3s-0.8-0.5-1-0.8l0.7-0.9c0.4,0.5,1,0.8,1.6,0.8c0.5,0,0.8-0.1,1.1-0.4s0.4-0.6,0.4-1.1
			v-0.4c-0.4,0.5-1,0.7-1.6,0.7c-0.7,0-1.3-0.3-1.8-0.9S72.5,47.1,72.5,46.1z M73.9,46.2c0,0.6,0.1,1.1,0.4,1.5s0.6,0.5,1.1,0.5
			c0.6,0,1-0.2,1.3-0.7v-2.8C76.4,44.2,76,44,75.4,44c-0.5,0-0.8,0.2-1.1,0.6S73.9,45.5,73.9,46.2z"/>
		<path class="st3" d="M82.6,49.4c-0.9,0-1.6-0.3-2.2-0.8s-0.8-1.3-0.8-2.3v-0.2c0-0.6,0.1-1.2,0.4-1.7s0.6-0.9,1-1.2
			s0.9-0.4,1.5-0.4c0.9,0,1.5,0.3,2,0.8s0.7,1.3,0.7,2.3v0.6H81c0,0.5,0.2,0.9,0.5,1.2s0.7,0.5,1.2,0.5c0.7,0,1.2-0.3,1.6-0.8
			l0.8,0.7c-0.2,0.4-0.6,0.7-1,0.9S83.1,49.4,82.6,49.4z M82.4,44c-0.4,0-0.7,0.1-0.9,0.4S81.1,45,81,45.5h2.7v-0.1
			c0-0.5-0.2-0.8-0.4-1.1S82.8,44,82.4,44z"/>
	</g>
	<g>
		<g>
			<path class="st3" d="M165.4,46.1v3.2h-1.5v-8.5h3.3c0.9,0,1.7,0.2,2.3,0.8s0.8,1.2,0.8,2c0,0.8-0.3,1.5-0.8,2
				c-0.6,0.5-1.3,0.7-2.3,0.7C167.2,46.1,165.4,46.1,165.4,46.1z M165.4,44.9h1.8c0.5,0,0.9-0.1,1.2-0.4s0.4-0.6,0.4-1.1
				c0-0.5-0.1-0.8-0.4-1.1s-0.7-0.4-1.2-0.4h-1.8L165.4,44.9L165.4,44.9z"/>
			<path class="st3" d="M175.4,49.3c-0.1-0.1-0.1-0.3-0.2-0.6c-0.4,0.5-1,0.7-1.7,0.7c-0.6,0-1.2-0.2-1.6-0.5s-0.6-0.8-0.6-1.3
				c0-0.7,0.2-1.2,0.8-1.6s1.2-0.5,2.1-0.5h0.9V45c0-0.3-0.1-0.6-0.3-0.8s-0.5-0.3-0.8-0.3c-0.3,0-0.6,0.1-0.8,0.2s-0.3,0.4-0.3,0.6
				h-1.4c0-0.3,0.1-0.7,0.4-1s0.5-0.5,0.9-0.7s0.8-0.3,1.3-0.3c0.7,0,1.3,0.2,1.8,0.6s0.7,0.9,0.7,1.6v2.9c0,0.6,0.1,1,0.2,1.4v0.1
				L175.4,49.3L175.4,49.3z M173.9,48.3c0.3,0,0.6-0.1,0.8-0.2s0.4-0.3,0.6-0.5v-1.2h-0.8c-0.5,0-0.9,0.1-1.2,0.3s-0.4,0.4-0.4,0.8
				c0,0.3,0.1,0.5,0.3,0.7S173.6,48.3,173.9,48.3z"/>
			<path class="st3" d="M180.5,47.2l1.3-4.3h1.5l-2.5,7.3c-0.4,1.1-1,1.6-2,1.6c-0.2,0-0.4,0-0.7-0.1v-1.1l0.3,0
				c0.4,0,0.6-0.1,0.8-0.2s0.3-0.3,0.4-0.7l0.2-0.5l-2.2-6.3h1.5L180.5,47.2z"/>
			<path class="st3" d="M185.7,43l0,0.7c0.4-0.5,1.1-0.8,1.8-0.8c0.9,0,1.4,0.3,1.7,1c0.5-0.7,1.1-1,1.9-1c0.7,0,1.2,0.2,1.6,0.6
				s0.5,1,0.5,1.7v4.2h-1.4v-4.1c0-0.4-0.1-0.7-0.3-0.9s-0.5-0.3-0.9-0.3c-0.3,0-0.6,0.1-0.8,0.3s-0.4,0.4-0.4,0.7l0,4.3h-1.4v-4.2
				c0-0.8-0.4-1.1-1.1-1.1c-0.6,0-1,0.2-1.2,0.7v4.6h-1.4v-6.3C184.4,43,185.7,43,185.7,43z"/>
			<path class="st3" d="M197.8,49.4c-0.9,0-1.6-0.3-2.2-0.8s-0.8-1.3-0.8-2.3v-0.2c0-0.6,0.1-1.2,0.4-1.7s0.6-0.9,1-1.2
				s0.9-0.4,1.5-0.4c0.9,0,1.5,0.3,2,0.8s0.7,1.3,0.7,2.3v0.6h-4.1c0,0.5,0.2,0.9,0.5,1.2s0.7,0.5,1.2,0.5c0.6,0,1.2-0.3,1.6-0.8
				l0.8,0.7c-0.2,0.4-0.6,0.7-1,0.9S198.4,49.4,197.8,49.4z M197.7,44c-0.4,0-0.7,0.1-0.9,0.4s-0.4,0.7-0.5,1.1h2.7v-0.1
				c0-0.5-0.2-0.8-0.4-1.1S198.1,44,197.7,44z"/>
			<path class="st3" d="M203.1,43l0,0.7c0.5-0.6,1.1-0.8,1.9-0.8c1.3,0,2,0.8,2,2.3v4.2h-1.4v-4.1c0-0.4-0.1-0.7-0.3-0.9
				s-0.5-0.3-0.9-0.3c-0.6,0-1,0.3-1.3,0.8v4.5h-1.4V43H203.1z"/>
			<path class="st3" d="M210.4,41.4v1.5h1.1V44h-1.1v3.5c0,0.2,0.1,0.4,0.1,0.5s0.3,0.2,0.5,0.2c0.2,0,0.3,0,0.5-0.1v1.1
				c-0.3,0.1-0.6,0.1-0.9,0.1c-1.1,0-1.6-0.6-1.6-1.8V44h-1v-1h1.1v-1.5H210.4z"/>
			<path class="st3" d="M218.2,40.8l2.5,6.5l2.5-6.5h1.9v8.5h-1.5v-2.8l0.1-3.8l-2.5,6.6h-1.1l-2.5-6.6l0.1,3.8v2.8h-1.5v-8.5H218.2
				z"/>
			<path class="st3" d="M229.6,49.4c-0.9,0-1.6-0.3-2.2-0.8s-0.8-1.3-0.8-2.3v-0.2c0-0.6,0.1-1.2,0.4-1.7s0.6-0.9,1-1.2
				s0.9-0.4,1.5-0.4c0.9,0,1.5,0.3,2,0.8s0.7,1.3,0.7,2.3v0.6h-4.1c0,0.5,0.2,0.9,0.5,1.2s0.7,0.5,1.2,0.5c0.6,0,1.2-0.3,1.6-0.8
				l0.8,0.7c-0.2,0.4-0.6,0.7-1,0.9S230.2,49.4,229.6,49.4z M229.5,44c-0.4,0-0.7,0.1-0.9,0.4s-0.4,0.7-0.5,1.1h2.7v-0.1
				c0-0.5-0.2-0.8-0.4-1.1S229.9,44,229.5,44z"/>
			<path class="st3" d="M235.3,41.4v1.5h1.1V44h-1.1v3.5c0,0.2,0.1,0.4,0.1,0.5s0.3,0.2,0.5,0.2c0.2,0,0.3,0,0.5-0.1v1.1
				c-0.3,0.1-0.6,0.1-0.9,0.1c-1.1,0-1.6-0.6-1.6-1.8V44h-1v-1h1v-1.5H235.3z"/>
			<path class="st3" d="M239.2,43.6c0.5-0.5,1.1-0.8,1.8-0.8c1.4,0,2,0.8,2.1,2.3v4.1h-1.4v-4.1c0-0.4-0.1-0.8-0.3-0.9
				s-0.5-0.3-0.8-0.3c-0.6,0-1,0.2-1.3,0.8v4.5h-1.4v-9h1.4L239.2,43.6L239.2,43.6z"/>
			<path class="st3" d="M244.4,46.1c0-0.6,0.1-1.2,0.4-1.7s0.6-0.9,1-1.2s1-0.4,1.5-0.4c0.9,0,1.6,0.3,2.1,0.8s0.8,1.3,0.9,2.2
				l0,0.3c0,0.6-0.1,1.2-0.4,1.7s-0.6,0.9-1,1.1s-1,0.4-1.6,0.4c-0.9,0-1.6-0.3-2.1-0.9S244.4,47.1,244.4,46.1L244.4,46.1
				L244.4,46.1z M245.8,46.2c0,0.7,0.1,1.2,0.4,1.5s0.6,0.5,1.1,0.5s0.9-0.2,1.1-0.6s0.4-0.9,0.4-1.7c0-0.6-0.1-1.2-0.4-1.5
				s-0.6-0.6-1.1-0.6c-0.5,0-0.8,0.2-1.1,0.5S245.8,45.5,245.8,46.2z"/>
			<path class="st3" d="M251.5,46.1c0-1,0.2-1.8,0.7-2.3s1.1-0.9,1.8-0.9c0.7,0,1.2,0.2,1.6,0.7v-3.2h1.4v9h-1.3l-0.1-0.7
				c-0.4,0.5-1,0.8-1.7,0.8c-0.7,0-1.3-0.3-1.8-0.9S251.5,47.1,251.5,46.1z M252.9,46.2c0,0.6,0.1,1.2,0.4,1.5s0.6,0.5,1.1,0.5
				c0.6,0,1-0.3,1.3-0.8v-2.7c-0.3-0.5-0.7-0.8-1.3-0.8c-0.5,0-0.8,0.2-1.1,0.5S252.9,45.5,252.9,46.2z"/>
			<path class="st3" d="M262.3,47.6c0-0.2-0.1-0.5-0.3-0.6s-0.6-0.2-1-0.3s-0.9-0.2-1.2-0.4c-0.7-0.3-1.1-0.8-1.1-1.5
				c0-0.5,0.2-1,0.7-1.4s1-0.5,1.8-0.5c0.8,0,1.4,0.2,1.8,0.6s0.7,0.9,0.7,1.5h-1.4c0-0.3-0.1-0.5-0.3-0.7s-0.5-0.3-0.8-0.3
				c-0.3,0-0.6,0.1-0.8,0.2s-0.3,0.3-0.3,0.6c0,0.2,0.1,0.4,0.3,0.5s0.5,0.2,1.1,0.4s1,0.3,1.3,0.4s0.5,0.4,0.7,0.6s0.2,0.5,0.2,0.9
				c0,0.6-0.2,1-0.7,1.4s-1.1,0.5-1.9,0.5c-0.5,0-1-0.1-1.4-0.3s-0.7-0.5-1-0.8s-0.3-0.7-0.3-1.1h1.4c0,0.3,0.1,0.6,0.4,0.8
				s0.5,0.3,0.9,0.3c0.4,0,0.7-0.1,0.9-0.2S262.3,47.8,262.3,47.6z"/>
		</g>
	</g>
	<g>
		<g>
			<path class="st4" d="M362.5,42h-2.7v7.3h-1.5V42h-2.6v-1.2h6.8L362.5,42L362.5,42z"/>
			<path class="st4" d="M365.1,43.6c0.5-0.5,1-0.8,1.8-0.8c1.4,0,2,0.8,2.1,2.3v4.1h-1.4v-4.1c0-0.4-0.1-0.8-0.3-0.9
				s-0.5-0.3-0.8-0.3c-0.6,0-1,0.2-1.3,0.8v4.5h-1.4v-9h1.4L365.1,43.6C365.1,43.6,365.1,43.6,365.1,43.6z"/>
			<path class="st4" d="M374.4,49.3c-0.1-0.1-0.1-0.3-0.2-0.6c-0.5,0.5-1,0.7-1.7,0.7c-0.6,0-1.2-0.2-1.6-0.5s-0.6-0.8-0.6-1.3
				c0-0.7,0.2-1.2,0.8-1.6s1.2-0.5,2.1-0.5h0.9V45c0-0.3-0.1-0.6-0.3-0.8s-0.5-0.3-0.8-0.3c-0.3,0-0.6,0.1-0.8,0.2s-0.3,0.4-0.3,0.6
				h-1.4c0-0.3,0.1-0.7,0.4-1s0.5-0.5,0.9-0.7s0.8-0.3,1.3-0.3c0.7,0,1.3,0.2,1.8,0.6s0.7,0.9,0.7,1.6v2.9c0,0.6,0.1,1,0.2,1.4v0.1
				L374.4,49.3L374.4,49.3z M372.8,48.3c0.3,0,0.5-0.1,0.8-0.2s0.4-0.3,0.6-0.5v-1.2h-0.8c-0.5,0-0.9,0.1-1.2,0.3s-0.4,0.4-0.4,0.8
				c0,0.3,0.1,0.5,0.3,0.7S372.5,48.3,372.8,48.3z"/>
			<path class="st4" d="M378.7,43l0,0.7c0.5-0.6,1.1-0.8,1.9-0.8c1.3,0,2,0.8,2,2.3v4.2h-1.4v-4.1c0-0.4-0.1-0.7-0.3-0.9
				S380.4,44,380,44c-0.6,0-1,0.3-1.3,0.8v4.5h-1.4V43H378.7z"/>
			<path class="st4" d="M386.3,46.6l-0.6,0.7v2.1h-1.4v-9h1.4v5.2l0.5-0.6l1.8-2h1.7l-2.4,2.6l2.6,3.7h-1.6L386.3,46.6z"/>
			<path class="st4" d="M396.9,44.8l2-4h1.6l-2.9,5.4v3.1h-1.5v-3.1l-2.9-5.4h1.6L396.9,44.8z"/>
			<path class="st4" d="M400.9,46.1c0-0.6,0.1-1.2,0.4-1.7s0.6-0.9,1-1.2s1-0.4,1.5-0.4c0.9,0,1.5,0.3,2.1,0.8s0.8,1.3,0.9,2.2
				l0,0.3c0,0.6-0.1,1.2-0.4,1.7s-0.6,0.9-1,1.1s-1,0.4-1.5,0.4c-0.9,0-1.6-0.3-2.1-0.9S400.9,47.1,400.9,46.1L400.9,46.1
				L400.9,46.1z M402.3,46.2c0,0.7,0.1,1.2,0.4,1.5s0.6,0.5,1.1,0.5s0.9-0.2,1.1-0.6s0.4-0.9,0.4-1.7c0-0.6-0.1-1.2-0.4-1.5
				s-0.6-0.6-1.1-0.6c-0.5,0-0.8,0.2-1.1,0.5S402.3,45.5,402.3,46.2z"/>
			<path class="st4" d="M412.1,48.7c-0.4,0.5-1,0.7-1.8,0.7c-0.7,0-1.2-0.2-1.6-0.6s-0.5-1-0.5-1.8v-4.1h1.4V47c0,0.8,0.3,1.2,1,1.2
				c0.7,0,1.2-0.2,1.4-0.7V43h1.4v6.3h-1.3L412.1,48.7z"/>
		</g>
	</g>
	<g>
		<path class="st5" d="M43.7,21.8h-2.1V11.5l-3.1,1.1v-1.8l5-1.8h0.3L43.7,21.8L43.7,21.8z"/>
	</g>
	<g>
		<path class="st6" d="M218,21.8h-8.6v-1.5l4.3-4.6c0.6-0.7,1.1-1.3,1.3-1.7s0.4-0.9,0.4-1.4c0-0.6-0.2-1.1-0.5-1.5
			c-0.3-0.4-0.8-0.6-1.4-0.6c-0.7,0-1.2,0.2-1.6,0.6s-0.6,1-0.6,1.7h-2.1c0-0.8,0.2-1.5,0.5-2.1s0.9-1.1,1.5-1.4s1.4-0.5,2.3-0.5
			c1.2,0,2.2,0.3,2.9,0.9s1.1,1.5,1.1,2.6c0,0.6-0.2,1.3-0.5,2s-0.9,1.5-1.8,2.4l-3.1,3.4h5.9L218,21.8L218,21.8z"/>
	</g>
	<g>
		<path class="st6" d="M383.3,14.4h1.3c0.7,0,1.2-0.2,1.6-0.5s0.6-0.8,0.6-1.4c0-0.6-0.2-1.1-0.5-1.4s-0.8-0.5-1.5-0.5
			c-0.6,0-1,0.2-1.4,0.5s-0.5,0.8-0.5,1.3h-2.1c0-0.7,0.2-1.2,0.5-1.8s0.8-1,1.5-1.3s1.3-0.4,2.1-0.4c1.3,0,2.3,0.3,3,1
			s1.1,1.5,1.1,2.7c0,0.6-0.2,1.1-0.5,1.6s-0.8,0.9-1.4,1.1c0.7,0.2,1.2,0.6,1.6,1.1s0.5,1.1,0.5,1.9c0,1.1-0.4,2.1-1.2,2.7
			s-1.8,1-3.1,1c-1.2,0-2.2-0.3-3-1s-1.2-1.5-1.2-2.6h2.1c0,0.6,0.2,1,0.6,1.4s0.9,0.5,1.5,0.5c0.7,0,1.2-0.2,1.6-0.5
			s0.6-0.9,0.6-1.5s-0.2-1.2-0.6-1.6s-1-0.5-1.8-0.5h-1.3L383.3,14.4C383.3,14.4,383.3,14.4,383.3,14.4z"/>
	</g>
	<path class="st1" d="M318.4,15.8h-79.1c-0.8,0-1.4,0.6-1.4,1.4s0.6,1.4,1.4,1.4h79.1L318.4,15.8L318.4,15.8z"/>
</g>
</svg>
